<?xml version="1.0"?>
<!DOCTYPE svg PUBLIC "-//W3C//DTD SVG 1.1//EN" "http://www.w3.org/Graphics/SVG/1.1/DTD/svg11.dtd">
<svg xmlns="http://www.w3.org/2000/svg" width="25cm" height="25cm">
	<g fill="#fff">
		<rect x="0" y="0" width="300" height="150"/>
		<g fill="none" stroke="#0080FF" stroke-width="2">
			<polyline points="98,44 98,44 96,41 93,39 63,32 59,32 55,32 52,33 49,36 45,40 41,46 37,52 33,64 32,72 31,79 30,90 30,96 30,102 30,106 31,108 33,109 35,110 37,110 39,110 46,105 53,100 59,95 66,90 72,87 76,84 80,81 83,79 85,78 87,77 88,76 89,75 89,75 90,75 90,75 91,78 91,84 91,92 91,98 91,105 91,109 91,112 91,113 91,113 91,113 91,114 91,114 91,114 91,115 91,115 91,116 91,117 91,119 92,120 92,121 92,121"/>
			<polyline points="38,125 38,124 38,121 42,106 48,92 53,79 59,66 62,57 65,50 67,46 67,43 68,41 68,39 68,38 68,37 68,37 67,38 67,40 67,42 66,47 65,52 64,60 64,68 63,78 62,92 61,98 61,104 60,109 60,112 60,114 60,115 60,116 60,115 61,113 64,107 70,98 76,87 87,68 91,61 95,55 97,51 99,49 100,48 100,47 100,47 100,47 100,48 100,49 100,52 100,58 100,64 102,72 104,80 106,88 107,93 108,98 108,101 109,103 109,105 109,106 109,107 109,109 109,111 110,112 110,113 110,114 110,115 111,115 111,115 111,115 111,115 112,115 112,114 113,113 116,112 118,110 125,106 132,104 139,102 149,100 159,100 170,99 182,99 193,99 201,99 210,98 217,98 223,96 229,95 231,94 232,93 232,93 232,92 232,92 232,91 232,90 232,88 232,83 230,78 226,72 222,68 220,67 217,66 215,66 214,66 213,66 212,66 212,67 211,67 211,68 211,68 213,69 218,70 224,70 230,70 234,68 237,65 240,63 241,60 241,57 241,54 241,51 239,48 238,47 237,46 236,45 235,44 235,44 234,44 234,44 233,45 233,46 232,52 230,66 230,81 230,97 230,111 231,120 232,128 233,134 234,138 235,140 235,141 235,142 234,142 231,142 222,142 202,138 175,129 144,118 107,104 67,92 27,80 8,76 -4,72 -13,69 -17,68 -18,68 -18,67 -18,67 -13,67 -6,67 18,67 39,65 63,64 89,61 113,58 130,56 150,54 163,52 170,51 177,50 181,49 187,47 189,47 193,46 195,45 197,45 198,45 199,45 199,45 200,45 200,45 201,45 204,45 207,45 212,47 218,48 224,49 232,51 239,52 242,53 246,55 249,56 251,57 252,57 253,58 253,58 254,58 255,58 257,58 258,58 259,58 260,58 260,58 259,58 258,58 255,58 253,58 252,58 251,58 250,58 250,58 249,59 249,60 249,60 249,60 250,60 251,60 255,60 258,60 262,60 264,59 266,57 267,55 267,53 268,52 268,51 268,51 268,50 267,50 266,49 264,49 263,49 262,49 261,49 261,49 260,49 260,49 260,50 260,52 260,57 260,63 262,69 263,75 265,82 266,84 267,85 267,85"/>
		</g>
	</g>
</svg>
