<?xml version="1.0"?>
<!DOCTYPE svg PUBLIC "-//W3C//DTD SVG 1.1//EN" "http://www.w3.org/Graphics/SVG/1.1/DTD/svg11.dtd">
<svg xmlns="http://www.w3.org/2000/svg" width="25cm" height="25cm">
	<g fill="#fff">
		<rect x="0" y="0" width="300" height="150"/>
		<g fill="none" stroke="#0080FF" stroke-width="2">
			<polyline points="52,38 51,38 51,38 49,37 47,37 45,36 42,36 39,36 36,36 33,36 31,37 28,41 26,46 23,53 21,61 19,70 18,80 17,89 17,99 18,107 25,118 31,123 36,125 42,127 49,128 54,127 57,124 60,120 63,114 65,110 67,103 67,101 68,100 70,96 70,95 71,95 73,95 76,97 78,101 82,106 84,109 87,113 89,116 92,121 93,123 94,124 95,125 95,126"/>
			<polyline points="23,125 23,125 23,123 23,121 23,116 26,105 29,97 32,90 35,82 37,76 37,72 39,66 39,62 40,60 40,59 40,61 40,68 40,76 41,85 42,96 43,105 45,115 46,122 47,129 48,133 48,135 49,136 49,135 50,133 50,126 52,116 55,101 57,84 60,66 61,59 62,55 63,54 63,54 64,54 66,58 70,63 73,69 77,76 79,80 81,83 82,86 83,87 83,87 83,88 83,88 83,88 84,88 84,88 88,89 97,91 106,91 119,91 132,86 140,81 149,74 153,70 157,65 158,62 159,60 159,58 156,56 150,53 145,52 141,51 139,50 138,50 137,50 137,53 137,57 140,60 145,65 151,67 155,67 158,66 162,63 165,60 166,58 167,56 167,55 167,55 167,55 168,58 170,65 174,77 178,88 183,100 186,109 190,118 192,123 192,127 193,132 191,136 187,139 177,141 155,141 126,136 89,126 60,119 37,115 14,111 4,109 -3,108 -6,108 -6,106 -6,104 -2,101 5,96 13,92 25,89 41,88 64,88 94,88 127,90 161,91 190,91 216,83 229,77 234,73 237,70 238,69 238,69 238,68 238,67 237,67 236,66 235,65 233,64 230,62 227,61 224,61 220,60 215,60 209,60 204,59 199,59 193,59 188,59 185,59 184,60 184,61 184,62 185,64 188,64 194,66 199,67 203,68 208,68 211,68 214,67 217,62 218,59 219,55 220,52 220,50 220,48 220,48 220,48 221,49 221,53 222,57 223,64 224,70 224,75 225,81 227,85 227,87 228,88 228,88 228,89"/>
		</g>
	</g>
</svg>
