<?xml version="1.0"?>
<!DOCTYPE svg PUBLIC "-//W3C//DTD SVG 1.1//EN" "http://www.w3.org/Graphics/SVG/1.1/DTD/svg11.dtd">
<svg xmlns="http://www.w3.org/2000/svg" width="25cm" height="25cm">
	<g fill="#fff">
		<rect x="0" y="0" width="300" height="150"/>
		<g fill="none" stroke="#0080FF" stroke-width="2">
			<polyline points="165,27 165,27 163,27 163,27 157,27 152,27 146,27 139,27 133,27 127,27 122,28 117,30 113,32 110,34 106,37 101,44 98,50 97,56 96,63 96,70 95,75 95,80 95,86 97,90 100,94 103,97 106,99 112,101 115,102 118,102 121,102 124,101 127,100 129,98 131,96 133,94 134,92 135,90 136,87 137,86 137,85 137,85 137,86 137,87 137,91 138,96 139,104 140,110 141,114 142,117 143,118 143,119 144,120 144,121 144,121"/>
			<polyline points="67,69 69,69 71,69 74,68 81,67 87,66 92,64 97,62 101,60 105,57 106,56 109,52 110,51 111,50 112,50 112,50 113,52 114,58 115,70 115,85 115,100 115,108 115,116 115,121 115,122 115,122 115,118 115,111 115,96 118,84 121,67 125,55 126,50 128,48 129,48 131,48 132,48 139,58 144,67 149,77 157,91 162,99 166,103 168,107 170,109 171,110 172,111 173,111 173,111 175,107 177,103 181,97 189,88 196,83 202,79 209,75 215,72 218,70 224,67 226,65 229,62 230,60 231,57 231,51 229,49 225,47 221,46 218,46 217,46 216,47 215,50 215,56 215,59 218,63 222,66 228,67 233,67 239,62 244,56 247,51 249,45 250,42 250,39 250,38 250,37 250,40 250,46 250,55 250,67 253,78 256,88 260,98 264,107 267,117 269,123 270,131 271,133 271,134 270,134 266,134 256,133 243,129 225,123 202,118 185,114 154,111 138,110 125,110 119,110 114,108 111,107 110,105 109,102 109,98 109,94 109,90 109,88 109,87 110,86 114,86 119,86 132,86 143,86 162,86 178,83 193,78 203,73 217,65 225,61 231,60 236,58 241,56 245,55 248,54 250,53 251,52 253,51 254,50 256,49 258,48 259,48 260,47 261,47 262,47 262,47 262,47 262,46 263,44 263,43 264,42 264,41 264,40 264,39 262,38 261,37 260,37 259,36 258,36 257,36 256,36 256,36 255,36 255,38 255,41 255,44 255,47 255,50 256,52 258,53 260,53 262,53 265,53 266,52 267,51 267,49 268,47 268,45 268,44 269,43 269,41 269,40 269,40 269,39 269,40 269,40 269,43 269,47 269,50 269,54 269,56 269,60 270,61 270,62 270,63 270,63 270,64 270,64"/>
		</g>
	</g>
</svg>
