<?xml version='1.0' encoding='utf-8'?>
<svg xmlns="http://www.w3.org/2000/svg" version="1.1" width="1025px" height="769px" viewBox="27 680 1025 769"> <g id="layer1"> <g style="fill:rgb(118,184,188); fill-opacity:1.0; stroke-linejoin: miter"> <path d="M26.998999,679.3759C26.833744,679.3759,26.675259,679.4415,26.558405,679.5584C26.441551,679.6753,26.375904,679.83374,26.375904,679.999L26.376904,1449.0C26.376904,1449.3441,26.655874,1449.623,26.999998,1449.623L1052.001,1449.624C1052.1663,1449.624,1052.3247,1449.5583,1052.4415,1449.4415C1052.5583,1449.3247,1052.624,1449.1663,1052.624,1449.001L1052.623,680.0C1052.623,679.6559,1052.3441,679.3769,1052.0,679.3769L26.998999,679.3759 Z"/> </g> <g style="fill:rgb(0,0,0); fill-opacity:0.40784314; stroke-linejoin: miter"> <path d="M803.75275,1312.8281L801.4518,1316.72Q789.64075,1323.0508,783.5444,1324.0378Q775.24133,1326.3027,763.8266,1328.335Q740.9971,1332.3994,705.72034,1335.5336Q670.1994,1338.6652,629.072,1340.142Q576.4363,1341.6259,564.2272,1341.4261Q541.561,1341.544,517.49316,1341.2479Q471.55396,1340.4207,433.7908,1338.177Q414.90924,1337.055,398.07166,1335.5791Q357.76624,1331.5795,352.158,1330.3546Q290.66388,1320.6433,301.08408,1310.1702Q305.66412,1304.9556,323.75925,1300.5498Q332.8068,1298.3469,345.23312,1296.3463Q349.5348,1295.1968,389.7139,1290.8448Q456.48834,1284.42,551.6958,1284.1466Q575.4976,1284.215,597.52246,1284.6677Q651.0295,1286.1362,659.5984,1286.8912Q698.3168,1288.9503,729.927,1292.5472Q745.73206,1294.3457,758.15845,1296.3463Q786.26776,1301.5249,787.83514,1302.8032Q802.5515,1307.4113,803.75275,1312.8281"/> </g> <g style="fill:rgb(0,0,0); fill-opacity:1.0; stroke-linejoin: miter"> <path d="M647.78406,860.42346Q637.00055,868.55164,637.4034,890.8442Q636.93756,905.2099,639.2041,914.316Q640.10614,920.74884,646.03986,928.6037L650.02203,933.9981L708.25934,945.9364Q703.7424,921.3391,696.64374,899.6599Q687.6182,872.03033,681.7236,863.6641Q679.1767,859.9716,676.11896,858.6079Q666.69946,855.85266,663.4493,855.5665Q661.6123,855.38855,660.4175,855.7898Q659.14,856.09546,657.3058,858.0061Q650.9832,858.0034,647.86975,860.36365 Z"/> </g> <g style="fill:rgb(213,245,255); fill-opacity:1.0; stroke-linejoin: miter"> <path d="M686.0607,921.0134Q670.499,921.4954,654.6551,925.3034Q651.21783,926.2856,649.5588,927.5739Q648.58936,928.11835,647.21405,930.8991Q646.627,931.57367,645.9764,931.95856Q644.9559,932.7336,640.1948,934.3731Q627.8973,956.96436,623.0666,969.34814Q617.4239,983.41394,615.5381,996.2765Q614.46234,1003.17236,613.91406,1011.04895Q613.59045,1014.31934,612.7952,1035.3071Q612.55286,1039.7125,612.1869,1043.3298Q611.6168,1050.6923,608.2188,1068.0363Q607.71606,1071.4755,607.801,1073.5458L632.33105,1094.1868Q649.9274,1101.4944,657.6534,1101.4874Q675.2301,1102.5979,678.70233,1076.1461Q680.0798,1067.5514,680.70636,1053.7094Q681.049,1051.9407,681.7542,1000.6875Q682.0787,989.72766,682.96857,980.40076Q684.0807,968.7435,686.0006,958.37537Q687.3051,950.64233,691.96704,932.23706Q692.55774,929.57117,692.7256,927.25964Q692.88446,924.2394,691.8483,923.46924Q691.39154,923.03687,690.1878,922.8943Q689.8095,921.73157,689.1114,921.5144Q688.3095,921.10205,686.07477,921.01416 Z"/> </g> <g style="fill:rgb(0,0,0); fill-opacity:1.0; stroke-linejoin: miter"> <path d="M676.0288,1278.9111L641.9008,1306.6334Q630.89166,1317.646,627.8178,1321.8894Q623.9682,1327.0354,625.2633,1328.7214Q626.55963,1330.9088,635.07385,1329.9951Q653.34827,1327.4368,657.74347,1325.1986Q659.6797,1324.3094,660.56586,1322.9663Q661.0039,1322.3143,661.318,1321.3931L662.6801,1316.9004Q663.1912,1315.6091,664.00244,1314.2034Q667.14,1309.0181,669.16846,1308.0345Q669.8978,1307.8683,669.8464,1309.3969Q669.89374,1310.2822,668.9825,1314.8936L671.89594,1314.969L672.985,1304.8077Q673.4103,1303.9752,674.17126,1302.9833Q678.6432,1297.8125,679.3694,1296.4823Q680.96594,1293.9938,681.176,1291.929Q681.9044,1287.4556,676.05444,1278.9485 Z"/> </g> <g style="fill:rgb(0,0,0); fill-opacity:1.0; stroke-linejoin: miter"> <path d="M605.74774,1268.1956L575.57886,1297.1299Q566.6629,1307.6934,564.03796,1311.6705Q560.7738,1316.4934,561.579,1317.8156Q562.09955,1319.3602,567.3851,1318.7245L581.3567,1317.0825Q584.8196,1316.463,586.97345,1315.0911Q589.12616,1313.7474,590.6069,1310.7672Q591.459,1309.4463,593.82117,1301.288Q594.4824,1299.5342,595.3217,1298.3014Q596.0291,1297.2223,597.26306,1296.0826Q598.5876,1294.8796,603.50214,1290.7997L604.70105,1305.7814L607.1739,1305.354Q606.5531,1297.8246,607.4102,1293.6393Q607.7016,1291.8354,608.50354,1288.3013Q611.13135,1285.919,610.8758,1283.1226Q610.86365,1279.4078,605.7488,1268.1973 Z"/> </g> <g style="fill:rgb(255,196,162); fill-opacity:1.0; stroke-linejoin: miter"> <path d="M588.6205,1259.1234L604.62195,1260.041Q604.60535,1260.6656,604.59143,1261.2621L604.58966,1261.2628Q602.52045,1261.5127,600.27454,1261.5127Q594.9627,1261.5128,588.6626,1260.1079L588.66077,1260.1085Q588.64154,1259.6223,588.6205,1259.1251L588.6205,1259.1234 Z M676.1018,1269.2078Q675.84656,1270.7273,675.6509,1272.0319L675.6483,1272.0326Q673.50415,1272.3666,671.3406,1272.3666Q666.76953,1272.3667,662.11115,1270.8707L662.1088,1270.8715Q662.3188,1270.3983,662.5323,1269.9183L676.0802,1269.2086L676.0991,1269.2078 Z M581.4158,1305.8057Q581.5623,1305.8069,581.7109,1305.8069Q581.8481,1305.8069,581.98694,1305.8057L581.9881,1305.8059Q581.84875,1305.8069,581.7109,1305.8069Q581.5615,1305.8069,581.41425,1305.8057 Z M587.78143,1257.4808Q587.073,1257.5845,586.9999,1258.1968Q587.8093,1277.3634,586.5769,1279.2717Q586.40906,1279.7618,586.0836,1280.3367Q584.39966,1282.8315,584.08325,1283.561Q580.4859,1292.038,579.24005,1293.7638Q578.3348,1295.241,577.1337,1296.6019L572.6389,1301.266Q571.78687,1302.2982,571.64386,1303.2561Q571.38385,1304.9304,574.0593,1306.1049Q577.01044,1307.3098,581.27026,1307.4152Q581.4479,1307.4185,581.62244,1307.4185Q585.6112,1307.4183,587.8424,1305.7391Q590.22974,1304.1155,593.03094,1299.0132Q597.7495,1290.5111,605.6525,1272.7505Q606.1511,1271.5049,606.19025,1270.5454Q606.02185,1267.3398,606.21313,1260.1864L607.6952,1260.1544Q608.08514,1260.0338,608.21967,1259.5406Q608.25604,1258.7576,607.54175,1258.6107L587.8242,1257.481L587.78143,1257.4808 Z M646.945,1317.903Q646.9332,1317.903,646.922,1317.903Q646.9105,1317.903,646.899,1317.903 Z M676.5144,1266.7649L676.31323,1267.6001L661.9434,1268.3519Q661.4745,1268.4219,661.2994,1268.7657Q651.2628,1291.3776,648.36017,1296.2686Q646.6869,1299.2635,644.86664,1301.834L636.1205,1313.7175Q636.01556,1314.1545,636.2857,1314.4675Q638.28564,1316.5305,639.5699,1317.3771Q641.6382,1318.805,644.15857,1319.2292Q645.7113,1319.4324,647.35486,1319.4324Q652.50964,1319.4327,658.55963,1317.4376Q662.64545,1316.0173,665.65845,1310.9543Q668.0712,1307.0868,671.61365,1298.5055Q675.9927,1287.705,677.47687,1282.2604Q677.7934,1281.0156,677.6866,1280.3663Q677.5053,1279.5175,676.69415,1279.2678Q676.553,1278.7998,676.6027,1277.7625Q676.7187,1274.8712,678.07733,1267.0839L676.58234,1266.776L676.5144,1266.7649 Z"/> </g> <g style="fill:rgb(0,0,0); fill-opacity:1.0; stroke-linejoin: miter"> <path d="M637.8714,1082.5522Q637.8499,1082.5522,637.82806,1082.5522Q637.8063,1082.5522,637.7846,1082.5522 Z M694.97363,1066.5472Q695.6593,1066.5472,696.1349,1066.8392L696.2506,1066.9122Q697.34424,1067.5748,697.8938,1070.2947L699.4695,1081.4791L699.4695,1081.4795L701.10706,1093.099L699.4695,1081.4791L699.4669,1081.4795Q689.8392,1085.2308,680.5309,1087.7108Q675.1969,1089.0902,669.4121,1089.0903Q667.2357,1089.0903,664.99506,1088.8955Q664.5789,1088.853,664.3518,1088.2743Q663.5832,1084.5144,662.89954,1081.1033L662.89716,1081.1042Q663.71545,1081.0276,664.55084,1080.9482Q668.5963,1080.5991,673.481,1078.4451Q675.87897,1077.8315,691.49866,1067.6556Q693.63586,1066.5476,694.97363,1066.5472 Z M646.9691,1132.0616Q646.9735,1132.0616,646.9771,1132.0616L646.9754,1132.0619Q646.97205,1132.0616,646.9691,1132.0616Q646.96594,1132.0616,646.9629,1132.0616Q646.96594,1132.0616,646.9691,1132.0616 Z M599.5922,1266.646Q599.5771,1266.646,599.5621,1266.646Q599.54675,1266.646,599.53143,1266.646 Z M672.5198,1277.8828Q672.511,1277.8828,672.5017,1277.8828Q672.4928,1277.8828,672.48413,1277.8828 Z M694.93384,1064.8986Q693.35376,1064.8988,691.3567,1065.8915Q673.83466,1077.2544,670.793,1077.7667Q666.9613,1079.4521,658.7084,1079.7913Q646.1965,1080.8972,638.0052,1080.8973Q632.38586,1080.8967,628.80005,1080.3771Q624.4897,1079.8359,620.334,1078.3953Q615.904,1076.9501,608.6961,1072.5283Q608.4905,1072.48,608.3201,1072.48Q607.7621,1072.4801,607.5755,1072.9976Q606.301,1084.6085,605.81006,1086.0267Q597.0658,1114.3544,591.0616,1141.5332Q587.4186,1158.345,585.2908,1176.1025Q583.2911,1193.1475,583.27045,1203.021Q584.9176,1263.3611,584.1226,1265.5591Q584.18414,1266.0044,584.42365,1266.1656Q592.5501,1268.2832,599.1865,1268.2833Q603.88684,1268.2833,607.8392,1267.2208Q611.02277,1244.2067,612.5152,1236.8593Q612.8776,1233.744,617.6381,1216.5598Q618.28796,1214.0072,616.5053,1203.4103Q616.4257,1201.5222,617.13666,1199.102Q634.3875,1151.3063,646.33356,1135.3013L654.2671,1198.3268Q654.83417,1201.9155,655.7709,1205.3359L659.8532,1218.5741Q660.8588,1222.6647,661.4154,1227.805Q662.837,1238.2692,661.126,1277.2325Q667.01044,1279.5198,672.7615,1279.5198Q680.30524,1279.5199,687.6201,1275.5848Q688.9799,1256.4425,689.91644,1248.9929Q690.2651,1244.589,693.55774,1226.8765Q694.0912,1223.1963,694.1245,1221.0992Q694.2401,1217.9203,693.62036,1214.0381Q690.3982,1200.0409,690.1872,1196.6127Q689.54205,1190.989,690.1153,1186.2482Q693.79333,1159.0619,695.0725,1154.2278Q696.1279,1149.4415,697.1343,1146.6299L702.5674,1132.4398Q703.8708,1127.6611,704.1125,1121.4996Q704.62213,1108.7963,702.56995,1091.4113L699.4933,1069.9073Q698.93225,1066.9409,697.34644,1065.646L697.1714,1065.5189Q696.183,1064.8988,694.93384,1064.8986 Z"/> </g> <g style="fill:rgb(255,255,255); fill-opacity:1.0; stroke-linejoin: miter"> <path d="M659.5781,1003.79175L659.5781,1003.7927C659.5768,1003.7917,659.57556,1003.79175,659.5745,1003.79175C659.57336,1003.79175,659.57214,1003.7917,659.5709,1003.79175L659.5781,1003.7927 Z M669.8369,1087.427L669.8369,1087.428C669.8279,1087.427,669.819,1087.427,669.8102,1087.427C669.8014,1087.427,669.7926,1087.427,669.7838,1087.427L669.8369,1087.428 Z M690.8554,929.5797L690.8554,929.5807C690.56616,929.5797,690.33154,929.7021,690.15485,929.94946C683.4436,939.3455,678.4972,946.55865,675.2837,951.5681C670.861,958.46246,667.5798,964.4516,665.2818,969.4701C661.2717,978.22766,659.05084,989.0223,658.805,1001.9398L623.255,994.84094C623.19495,994.8286,623.1374,994.82263,623.08234,994.82263C622.7139,994.82263,622.4549,995.09534,622.3053,995.64087L622.0133,1015.92456C621.9467,1016.083,622.04694,1016.3271,622.31396,1016.65674L654.4983,1024.5137C655.75964,1038.324,657.07635,1049.002,658.3262,1056.5681C659.4317,1063.2609,661.33185,1073.8502,664.3518,1088.2743C664.4367,1088.6799,664.7173,1088.8707,664.99506,1088.8955C666.48846,1089.0289,667.9612,1089.0903,669.4121,1089.0903C673.26855,1089.0902,676.9796,1088.6486,680.5309,1087.7108C688.6004,1085.5801,693.9009,1086.1387,702.32544,1082.558C701.75555,1078.8705,703.6202,1070.7378,702.22815,1064.9962C701.81024,1063.2725,700.4592,1059.3796,698.1634,1053.2922C697.6499,1051.9308,697.3089,1050.2775,696.9825,1048.3916C696.1808,1043.7595,695.5238,1035.9845,695.8293,1025.083C695.8806,1023.25183,696.8775,1020.894,698.2679,1018.0552C704.23553,1005.8708,707.7018,998.71564,708.5908,996.5305C710.1374,992.7292,711.7634,988.85864,713.02747,984.75806C718.52484,966.9241,721.1558,954.90454,720.9108,948.78064C720.76044,945.02155,718.3371,941.77094,713.8504,939.0801C706.56335,934.7097,698.95526,931.57336,691.0644,929.6068L690.8975,929.58057C690.8834,929.57996,690.8694,929.5797,690.8554,929.5797L690.8554,929.5807 Z"/> </g> <g style="fill:rgb(255,255,255); fill-opacity:1.0; stroke-linejoin: miter"> <path d="M589.9997,980.96313Q589.99896,980.96313,589.99835,980.96313Q589.99744,980.96313,589.9967,980.96313 Z M612.4089,988.85706Q612.5941,988.85706,612.7623,988.9523L612.7623,988.95264Q612.5941,988.85706,612.4089,988.85706Q612.2234,988.85706,612.021,988.9525Q612.2234,988.85706,612.4089,988.85706 Z M587.76465,1003.7573Q587.76,1003.7573,587.75543,1003.7573Q587.75104,1003.7573,587.7462,1003.7573 Z M647.34705,930.75885Q633.0811,933.1257,629.18933,936.9091Q627.6444,938.2448,626.37726,940.04315Q619.89435,951.2798,615.14966,956.4164Q615.186,956.7423,606.0403,964.9724L596.65936,975.51624Q594.1049,977.8987,591.1961,978.8667L590.2287,979.20276Q585.6985,976.8396,583.51965,975.4458Q580.8909,974.0574,577.4085,969.7785Q572.9064,967.7736,571.3306,966.3289Q569.2748,965.01556,557.68866,952.0909Q557.6673,952.0903,557.64655,952.0903Q556.9012,952.0903,556.7518,952.5119L546.06177,967.3083Q546.0867,967.977,546.28564,968.04645L575.65533,997.75793Q582.1778,1004.10034,584.8862,1004.8938Q586.21643,1005.4143,587.7295,1005.4143Q590.4969,1005.4143,593.87695,1003.6726Q598.9917,1001.20776,611.4423,991.4695L611.444,991.4701Q611.1023,1000.64746,610.257,1004.17664Q610.0884,1006.09753,607.38837,1009.45654Q607.09247,1010.01843,606.95856,1011.276Q606.8291,1012.3484,607.2335,1014.9177L609.4558,1026.6602L609.793,1030.8724Q609.7615,1032.5844,609.37854,1034.1393Q606.7514,1041.8759,606.58374,1044.313Q605.8347,1049.5588,606.10815,1056.1393Q606.45355,1072.0333,615.2562,1074.7618Q616.0118,1074.575,616.0268,1074.0114Q615.33777,1064.1964,616.1749,1057.7875Q620.49615,1034.0842,620.7946,1027.5675Q621.5452,1021.4928,622.7462,986.8164Q623.10626,980.92334,623.9136,977.3805Q625.0846,971.6106,629.2003,965.6968L647.4739,942.9463L647.75073,937.6568Q647.7062,936.9677,647.51184,936.9069Q647.4466,936.7579,646.93225,936.66595L641.5677,937.4572L641.5677,937.4576L647.90796,932.1894Q648.5222,930.9357,647.3659,930.7591L647.34705,930.75885 Z"/> </g> <g style="fill:rgb(255,196,162); fill-opacity:1.0; stroke-linejoin: miter"> <path d="M525.2185,933.80725Q523.25494,933.8457,524.34033,936.5696Q527.3346,942.58,529.8031,945.1933Q531.1815,946.6993,533.42004,948.1274Q534.81274,949.08466,539.8042,951.543Q540.6825,952.0279,541.456,952.62775Q542.13184,953.14655,543.1726,954.1087Q547.7646,958.47064,551.6068,962.003L557.99866,953.48517Q555.73834,950.3951,554.718,948.628Q554.24554,948.0136,551.74854,942.602Q551.1539,941.4799,550.5797,940.87286Q550.03406,940.2764,549.18256,939.78107L546.5815,938.4462Q543.20483,936.49493,542.9759,936.42255Q541.2986,935.5577,540.5549,935.8963Q539.2896,936.6928,540.2744,938.7891Q540.59717,939.4222,541.3133,940.25775Q541.467,940.51166,544.11053,943.07745Q544.7089,943.7332,544.75104,943.9886Q544.9273,944.66693,542.7907,944.1119Q540.542,943.47345,537.96936,941.9809Q536.7447,941.26215,535.3123,940.2172L530.275,936.3419L528.48596,935.0796Q526.52057,933.8275,525.2289,933.80725 Z"/> </g> <g style="fill:rgb(255,196,162); fill-opacity:1.0; stroke-linejoin: miter"> <path d="M658.4945,865.79517Q650.12897,866.14026,645.26215,871.1229Q641.58014,874.9254,640.815,885.2424Q640.8993,901.37177,643.35236,907.1672Q645.4299,913.2453,654.1267,919.5031L655.17896,927.3208L652.903,936.49133Q652.372,938.87915,652.3873,940.2086Q652.379,941.8356,653.3113,943.078L654.2824,948.8102L680.6788,926.9658L678.8067,910.8495Q681.324,902.93317,681.4679,898.9649Q681.7965,894.5041,680.1028,889.91144Q678.77625,886.1784,675.5214,880.75446Q672.0544,874.6879,668.5184,870.55707Q664.3606,865.714,658.5476,865.79517 Z"/> </g> <g style="fill:rgb(255,0,0); fill-opacity:0.09803922; stroke-linejoin: miter"> <path d="M678.4732,911.0919Q671.04224,919.61945,666.32196,921.2692Q660.9035,923.2398,654.3159,919.47894L663.0149,933.7678Q678.4223,911.6124,678.4808,911.1111 Z"/> </g> <g style="fill:rgb(0,0,0); fill-opacity:0.23529412; stroke-linejoin: miter"> <path d="M644.9117,1112.6241Q621.0553,1143.7136,613.9471,1170.1813Q606.11084,1195.3558,601.83575,1261.5222L606.18335,1261.2948L606.1852,1261.2953Q606.1884,1261.1608,606.1916,1261.0251L606.18976,1261.0261Q607.4458,1260.8053,608.63184,1260.4865Q611.70734,1238.2573,613.1486,1231.1605Q613.4989,1228.1512,618.09674,1211.553Q618.72455,1209.0878,617.0026,1198.8525Q616.9259,1197.0284,617.6123,1194.6904Q634.24414,1148.6104,645.7713,1133.1226L645.77325,1133.1235L644.91895,1112.7898L644.9117,1112.6241 Z"/> </g> <g style="fill:rgb(255,255,255); fill-opacity:1.0; stroke-linejoin: miter"> <path d="M618.6053,1043.8123L616.62305,1078.2598L607.50757,1075.7292Q606.3442,1066.5806,606.06506,1061.5212Q605.83734,1056.4658,605.903,1055.4618Q605.9197,1053.4469,606.0545,1051.4392Q606.193,1049.4321,606.4493,1047.4331Q606.51984,1046.4298,607.43005,1041.4489Q608.3916,1036.4711,610.7832,1027.5552L618.6053,1043.8123"/> </g> <g style="fill:rgb(255,255,255); fill-opacity:0.99607843; stroke-linejoin: miter"> <path d="M652.1798,1024.8435L649.7435,1052.428L647.30756,1080.0121C647.70337,1121.6284,648.0995,1163.2448,648.4958,1204.8608C667.6966,1202.7732,686.8976,1200.6855,706.0989,1198.5978C704.4044,1134.3533,705.494,1074.139,701.01587,1005.8645L652.1798,1024.8435 Z"/> </g> <g style="fill:rgb(255,255,255); fill-opacity:0.99607843; stroke-linejoin: miter"> <path d="M620.5752,979.0404L620.8094,1010.7407L621.04443,1042.4408Q616.10223,1123.817,611.16077,1205.1942Q593.6343,1201.6721,576.1081,1198.1505Q591.2094,1102.1765,606.31116,1006.20215L620.5752,979.0404"/> </g> <g style="fill:rgb(255,196,162); fill-opacity:1.0; stroke-linejoin: miter"> <path d="M624.98865,996.57544Q622.7541,995.83374,621.12506,994.84326Q620.8027,994.76294,616.1777,991.3544Q615.084,990.6138,614.13934,990.1102Q612.1642,989.0469,610.3285,988.7709Q608.2265,988.4463,605.5918,988.8152Q604.54333,988.95544,603.2203,989.2173Q596.5536,990.65015,595.2397,990.855Q592.7381,991.30066,591.30414,991.3273Q589.6364,991.3502,588.5849,990.886Q585.7656,989.5082,583.3887,988.0354Q582.6082,987.6345,581.9288,987.5261Q579.39,987.3629,578.70654,989.40796Q578.4895,990.33545,579.53613,991.73413Q579.84955,992.2855,583.106,995.5978Q583.49945,996.0061,584.6972,997.69653Q584.95966,998.0315,585.32227,998.33813Q585.64404,998.6161,586.3131,998.9839Q590.00964,1000.78296,590.7553,1001.2936Q591.2511,1001.54333,595.13135,1004.29675L596.40967,1005.0956Q597.7043,1005.83984,598.92926,1006.0178Q599.5339,1006.10913,600.17316,1006.12256Q603.94806,1006.0399,608.6352,1006.2854Q613.529,1006.52563,623.0709,1007.20325L624.98627,996.58826 Z"/> </g> <g style="fill:rgb(255,255,255); fill-opacity:0.99607843; stroke-linejoin: miter"> <path d="M640.83875,947.5812L628.2693,980.20447L624.58685,996.0703L617.6141,988.41187L617.55,965.59924L640.83875,947.5812"/> </g> <g style="fill:rgb(0,0,0); fill-opacity:1.0; stroke-linejoin: miter"> <path d="M687.2751,917.3236L687.2751,917.3241L687.2751,917.3251C687.2751,917.5668,687.2166,917.8058,687.10443,918.0204L687.10443,918.0216L658.8481,972.1692C658.4636,972.9061,657.5547,973.1919,656.81757,972.8071C656.0805,972.423,655.7953,971.5138,656.1794,970.7761L656.1794,970.7776L684.4361,916.6279L684.2651,917.3241L684.2651,917.3236C684.2651,916.49243,684.9388,915.8186,685.7702,915.8186C686.6014,915.8186,687.2751,916.49243,687.2751,917.3236 Z"/> </g> <g style="fill:rgb(0,0,0); fill-opacity:1.0; stroke-linejoin: miter"> <path d="M653.7586,924.3931L653.7586,924.39374L653.7586,924.39435C653.7586,924.5931,653.71893,924.7901,653.6422,924.9736L653.6422,924.9744L636.80835,965.2844C636.48834,966.052,635.60657,966.41345,634.83966,966.09326C634.07245,965.7726,633.7105,964.89087,634.03064,964.1245L634.03064,964.12524L650.86444,923.8138L650.7482,924.3935L650.7482,924.39276C650.7482,923.5616,651.4223,922.8879,652.2533,922.8879C653.0846,922.888,653.7586,923.5618,653.7586,924.3931 Z"/> </g> <g style="fill:rgb(0,0,0); fill-opacity:1.0; stroke-linejoin: miter"> <path d="M640.2163,994.6002L640.2163,994.6011L637.34827,992.87415C636.66675,992.4645,636.422,991.59485,636.7894,990.88965L636.7894,990.89014C640.8651,983.0642,645.2495,974.5283,650.2817,971.3889L650.2817,971.3898C651.867,970.3994,653.5437,969.91296,655.1905,969.91284L655.1905,969.9136C659.1266,969.91284,662.45807,972.64966,663.8728,976.7317L663.8728,976.7323C665.81067,982.3246,664.22345,990.76526,662.8073,998.5366C662.6647,999.31946,661.9373,999.85596,661.14734,999.76135L661.14734,999.76184L655.8811,999.1294C655.0561,999.03076,654.4671,998.2816,654.56604,997.45593C654.66516,996.6301,655.41425,996.0415,656.23944,996.1404L656.23944,996.14075L661.50586,996.7726L659.84576,997.9968C661.3302,989.8529,662.64386,982.3788,661.0285,977.7178L661.0285,977.7185C659.9469,974.5967,657.5973,972.9232,655.19055,972.92334L655.19055,972.9237C654.151,972.9236,653.0214,973.2278,651.8748,973.94275L651.8748,973.94324C647.72235,976.53394,643.74506,984.0513,639.4591,992.2798L638.9006,990.2954L641.76794,992.0204C642.4804,992.4492,642.7102,993.37415,642.28174,994.0863C641.853,994.7988,640.9284,995.02856,640.2163,994.6002 Z"/> </g> <g style="fill:rgb(0,0,0); fill-opacity:0.99607843; stroke-linejoin: miter"> <path d="M641.4497,968.5038L641.13745,969.4326Q639.9341,972.17053,637.2899,973.3058Q634.63086,974.43604,631.72266,973.32495Q628.9852,972.1222,627.84955,969.4772Q626.7195,966.8181,627.8303,963.9105Q629.0339,961.17285,631.6781,960.0371Q634.337,958.907,637.24506,960.01794Q639.98285,961.2218,641.1182,963.86523Q641.48035,964.719,641.6156,965.6487L641.68823,966.5868Q641.7006,967.5383,641.4497,968.5038"/> </g> <g style="fill:rgb(60,70,79); fill-opacity:0.99607843; stroke-linejoin: miter"> <path d="M638.1865,967.9519L638.03,968.41797Q637.4262,969.7909,636.0999,970.3607Q634.7659,970.92773,633.3072,970.37Q631.93365,969.76636,631.36426,968.43994Q631.18243,968.0121,631.11475,967.5458L631.07825,967.0753Q631.0717,966.59753,631.19763,966.11316Q631.626,964.6382,632.8712,963.91125Q634.1167,963.1848,635.61176,963.5383Q637.08655,963.9667,637.81335,965.2119Q638.5398,966.45715,638.1865,967.9519"/> </g> <g style="fill:rgb(60,70,79); fill-opacity:0.99607843; stroke-linejoin: miter"> <path d="M643.1852,995.7106L642.8933,995.86914Q641.96265,996.2704,641.0445,995.9415Q640.1237,995.6084,639.659,994.661Q639.25745,993.7302,639.586,992.81226Q639.6933,992.51685,639.8746,992.2551L640.07324,992.00574Q640.2899,991.7665,640.57477,991.5851Q641.4655,991.0521,642.4159,991.26624Q643.36615,991.47974,643.9428,992.3424Q644.4755,993.2329,644.26166,994.1836Q644.04785,995.1339,643.1852,995.7106"/> </g> <g style="fill:rgb(60,70,79); fill-opacity:0.99607843; stroke-linejoin: miter"> <path d="M656.9011,1000.02014L656.6093,1000.1781Q655.67883,1000.5796,654.7605,1000.25134Q653.8399,999.91797,653.3749,998.9707Q652.97363,998.0405,653.30225,997.1221Q653.4094,996.8264,653.59033,996.5648L653.789,996.31506Q654.006,996.0764,654.29083,995.89465Q655.1815,995.3617,656.1319,995.57556Q657.0822,995.7897,657.65906,996.6522Q658.19135,997.5426,657.9775,998.49316Q657.7637,999.44385,656.9011,1000.02014"/> </g> <g style="fill:rgb(255,81,0); fill-opacity:0.99607843; stroke-linejoin: miter"> <path d="M518.6541,1142.083L518.6541,1142.0837L518.6541,1142.0833Q558.33356,1154.045,598.01245,1166.0062L518.6541,1142.083 Z"/> </g> <g style="fill:rgb(0,0,0); fill-opacity:0.99607843; stroke-linejoin: miter"> <path d="M615.37555,1333.0427L615.37555,1333.0436L615.3757,1333.0443L615.37555,1333.0427 Z"/> </g> <g style="fill:rgb(0,0,0); fill-opacity:1.0; stroke-linejoin: miter"> <path d="M534.6285,863.2468L568.3958,885.135L602.16327,907.02386Q602.0981,954.9057,602.03253,1002.78687Q570.86694,973.32446,539.7015,943.8621L534.6285,863.2468"/> </g> <g style="fill:rgb(255,196,162); fill-opacity:1.0; stroke-linejoin: miter"> <path d="M611.6159,991.5812L611.6578,991.5978Q611.8769,991.68286,612.06366,991.735Q612.1936,991.77124,612.25256,991.78357Q612.4587,991.83044,612.5049,991.8352L611.62317,991.5812L611.6159,991.58203"/> </g> <g style="fill:rgb(56,54,57); fill-opacity:0.65882355; stroke-linejoin: miter"> <path d="M534.6807,864.1748L538.21094,943.2785L603.29694,1001.8424L606.6146,908.5157Q566.39075,883.724,534.6807,864.1748 Z"/> </g> <g style="fill:rgb(94,172,172); fill-opacity:1.0; stroke-linejoin: miter"> <path d="M568.1505,919.6267L568.165,919.6384Q568.206,919.67725,568.22876,919.7435Q568.25116,919.8114,568.2477,919.87964Q568.24274,919.9381,568.21375,919.95984Q568.20435,919.9662,568.19275,919.9662L568.18054,919.9652Q568.1676,919.9623,568.15326,919.95154Q568.11584,919.9215,568.0871,919.8528Q568.05817,919.7837,568.05597,919.719Q568.057,919.6456,568.0849,919.62305Q568.11316,919.60034,568.1505,919.6267"/> </g> <g style="fill:rgb(94,172,172); fill-opacity:1.0; stroke-linejoin: miter"> <path d="M568.81366,944.3565L568.82983,944.3735Q568.945,944.5015,569.5923,945.49994Q569.6773,945.64264,570.1992,946.3123Q570.85126,947.1164,571.5551,947.76227Q571.71326,947.9163,572.1638,948.2801Q572.3901,948.4687,572.8741,948.7713Q573.147,948.93243,573.3901,949.028Q573.50397,949.0815,574.0972,949.2271Q574.61554,950.6131,574.7526,950.7518Q574.8202,950.87006,574.9664,950.9847Q575.03687,951.02814,575.06854,951.0351L575.2705,951.08344Q575.3636,951.1208,575.4771,951.2142Q575.55884,951.28534,575.59753,951.3381Q575.7169,951.5202,575.7067,951.54877Q575.5793,952.0169,574.1879,951.5628Q572.93567,949.8693,571.84564,948.6429Q571.25165,947.9725,570.59814,947.3001Q570.19006,946.8686,568.7573,945.4859Q568.5584,944.217,568.81366,944.3565"/> </g> <g style="fill:rgb(94,172,172); fill-opacity:1.0; stroke-linejoin: miter"> <path d="M574.00116,974.1953L573.9739,974.17114Q573.64484,973.881,573.2157,973.5719Q572.9855,973.41345,572.7706,973.33374Q572.1094,973.11743,571.4598,973.1958L575.72253,977.03284Q575.2401,975.91943,574.8681,975.3191Q574.5456,974.78345,574.41376,974.6293Q574.2421,974.40967,574.00116,974.1953"/> </g> <g style="fill:rgb(94,172,172); fill-opacity:1.0; stroke-linejoin: miter"> <path d="M561.8676,963.3023L561.7087,963.169L561.55347,963.05597Q561.39923,962.95294,561.25073,962.8902Q561.1024,962.8271,560.95886,962.8029Q560.53107,962.73285,560.1381,963.0085L564.0829,966.5588Q563.39154,965.257,562.8785,964.51373Q562.3417,963.72675,561.8676,963.3023"/> </g> <g style="fill:rgb(94,172,172); fill-opacity:1.0; stroke-linejoin: miter"> <path d="M566.8472,893.6885L566.7651,893.6367Q561.76276,891.64685,561.8934,897.66724Q561.7895,899.0156,562.12213,903.5137Q562.1752,903.87195,561.81775,904.3926L561.81665,904.8004Q561.73816,904.9392,562.50214,906.5017Q562.6632,907.31274,563.06085,908.4491Q563.6687,912.97766,563.88983,913.29724L565.5846,916.5342Q565.7188,916.92896,565.28784,919.2882Q566.2347,919.85925,566.2301,920.10693Q564.816,919.5117,565.06244,920.8788Q566.3676,921.7704,566.2811,922.3943Q564.82074,921.0421,564.7169,922.20435Q564.7092,922.47485,564.89703,922.71094L565.92706,923.7422Q566.0657,923.9574,565.99585,924.1703Q565.913,924.4486,565.04144,923.2853Q564.83563,923.7604,564.6661,923.7042Q563.27527,923.3695,562.5225,923.5045Q560.9144,921.49695,558.25,919.25366Q557.3267,918.4552,556.99805,918.2333Q556.72186,918.6344,555.5069,917.4768Q554.6889,917.6664,555.0667,918.9541Q555.28156,919.69507,557.0974,921.7914Q557.30597,922.1128,557.26166,922.2733Q557.1837,922.3624,556.8659,922.11194L554.17163,920.0248Q553.92725,919.8865,553.7653,920.2168L553.95966,930.71796Q553.98615,932.27875,553.7996,937.49994Q553.7077,942.39716,552.8115,946.21344Q553.3827,948.40875,553.34454,948.7315Q552.8539,948.585,552.7613,949.0472L551.02295,954.8066L552.0772,955.7553Q552.71027,953.9222,552.9737,953.346Q553.11536,952.97894,553.28503,953.0252Q553.3455,953.0949,553.3201,953.25165L552.7453,956.3566L553.86786,957.3665Q555.919,951.34064,555.80115,951.3796L556.365,950.67804Q555.412,943.3958,555.486,939.37067Q555.43134,931.497,555.578,926.8823Q555.6341,925.33044,555.7104,925.0847Q555.77765,924.8967,555.96893,925.0454Q557.18353,926.4982,557.67206,928.03046Q558.4343,933.462,558.86804,934.8681Q558.7176,936.0878,558.855,938.086Q558.35754,938.84735,558.38074,939.7022Q558.31134,940.38947,558.7767,942.3216Q558.4288,942.7159,558.75366,946.7901L559.2265,950.77374Q559.4832,951.9196,560.3891,953.658Q560.51373,954.5572,560.67017,954.9598Q560.885,955.50446,560.9877,955.41095Q560.7478,953.9195,560.88196,954.0284L561.90594,953.96063L564.09937,952.49274Q566.07336,952.5484,566.46,954.0881Q566.5695,954.6208,566.321,955.222Q564.73376,953.99347,563.3627,955.1678Q562.0961,956.3433,562.1618,957.23724Q562.1677,957.75214,562.294,957.6855Q562.9467,956.56195,564.7006,955.6058Q564.8464,955.4014,566.0871,956.14703Q566.4879,957.27386,566.1921,957.8193L565.4178,957.43463L566.13605,958.5147L566.40204,960.0849Q566.16547,960.2249,566.11176,960.45074Q565.2381,959.69147,565.39435,960.0158L566.10004,961.40826Q566.1711,962.5601,566.428,963.32294Q566.5639,963.7071,565.13354,962.5473L565.9832,963.9799Q566.09436,964.08624,566.1567,965.5114L566.4547,966.13043Q566.49524,966.55524,565.33997,965.2231Q565.26685,965.2963,566.1348,966.71185Q566.1861,968.4074,566.0607,968.3377L569.4373,971.37604Q569.2009,970.6866,569.3725,969.7697L570.15765,969.5389L569.2241,968.84247Q568.9693,968.59503,568.9238,968.3676L569.2563,968.2701L569.43744,966.97406L570.26245,967.1257Q568.87415,965.7369,568.9098,965.5235Q569.1755,965.4091,569.2528,964.2518L570.0294,964.05206Q570.08466,963.84894,569.3096,963.22614Q569.0592,962.7592,568.9153,962.20905L569.12915,961.1966L569.85864,961.316L569.0746,960.3497Q568.83374,959.1397,569.14844,958.80975Q569.92206,959.43536,570.7619,961.03217Q572.66345,965.394,573.18365,967.189Q573.288,967.43365,573.3153,967.3189Q573.53906,966.16815,571.58826,961.66644Q570.41437,958.9257,568.8723,957.346Q568.4686,955.8332,568.91895,955.71246Q570.0347,956.4019,571.1997,958.60834L573.47815,963.8555L574.7392,966.14374Q574.89124,966.17706,574.671,967.20013Q574.69916,967.4312,574.75726,967.4749Q574.9894,967.78033,575.294,966.5485Q576.1248,966.4017,576.32227,966.0141Q576.524,965.71124,576.61646,965.21246Q576.6594,963.436,576.9798,962.25323Q577.1806,958.81366,576.8383,957.3245Q577.25555,956.4816,577.26117,955.6735Q577.3203,954.59467,576.67065,952.4985Q576.74506,950.6745,576.605,949.32135L577.9166,943.7796Q579.22327,943.0207,579.9863,943.94354Q580.59625,946.73114,580.6856,962.2436Q580.6176,966.9909,580.5347,966.7856L579.9454,970.2387Q579.86066,970.8637,579.92694,971.2581L580.6184,972.9115Q580.60876,973.21484,583.09674,983.6664L584.45856,984.8917Q583.6584,980.4645,583.8429,980.51526Q584.05975,980.8552,585.2367,985.5919L586.54175,986.76624L584.18146,976.38403L584.0028,975.8253Q583.48706,975.23193,583.5284,975.03406Q583.4665,974.5498,584.1453,973.235Q582.9882,968.4986,582.534,958.30096Q582.1052,952.285,582.4529,942.66376Q581.97253,941.30804,581.8157,941.3018L578.6231,938.87506Q578.247,938.5944,578.1539,938.351Q578.1069,938.09015,578.23303,938.08466Q580.33606,939.0047,580.7544,938.4327Q581.0691,937.55804,580.14624,936.15204Q578.1148,933.52716,572.2713,930.9108Q571.2445,929.27045,569.99347,927.7337Q569.8024,927.5048,569.6093,926.7592Q568.7715,926.5484,568.5952,926.0676Q568.54974,925.8174,568.7359,925.8342Q568.88416,925.80237,569.8218,926.46735Q569.9287,926.49786,569.9235,926.27826Q569.89923,925.59265,569.463,924.9081L568.321,923.854Q568.4054,923.52625,568.59467,923.57385L569.51917,924.19116Q569.75085,923.1714,568.2924,921.62354L569.2043,922.02966Q569.31573,921.7886,568.92755,919.82886Q568.866,918.95935,568.9239,918.926Q568.74115,918.65906,570.3611,918.3876L570.6731,918.07385L571.427,914.30896L572.68726,912.21484L572.32764,910.751Q572.56116,907.4691,572.40314,904.1936Q571.986,897.68335,566.8472,893.6885 Z M564.40875,909.3076L564.40875,909.30786Q564.64404,909.49365,564.8376,909.7737Q564.8902,909.86096,564.9283,909.96423L564.96204,910.06836Q564.99207,910.1747,565.00653,910.2799Q565.03485,910.4945,564.9959,910.62744Q564.976,910.6903,564.93835,910.7146L564.85004,910.7335Q564.83215,910.74133,564.8248,910.75916L564.8209,910.7814L564.82184,910.80945Q564.82556,910.84143,564.8409,910.89014Q564.8491,910.9291,564.99207,911.28503Q565.0309,911.3992,565.05176,911.50476Q565.0929,911.7201,565.06433,911.84753Q565.05035,911.90906,565.0196,911.93713L564.98486,911.95435Q564.94617,911.9624,564.89166,911.9241Q564.82153,911.86426,564.73785,911.6499Q564.65454,911.43616,564.6053,911.225Q564.5824,911.12524,564.5768,911.0543L564.57715,910.99585L564.5938,910.9508L564.5939,910.9286Q564.59766,910.92505,564.5694,910.81506Q564.54126,910.7156,564.48975,910.577L564.3308,910.1752L564.27136,910.0023L564.2253,909.8429L564.1924,909.6985L564.17303,909.572L564.16656,909.4636L564.1736,909.3761L564.1941,909.3109L564.2278,909.2694L564.2748,909.254L564.33514,909.26624L564.40875,909.3076 M569.8968,913.2289L569.945,913.2649Q570.07715,913.35657,570.2331,913.57654Q570.29486,913.67444,570.3139,913.76575L570.31635,913.8003Q570.31635,913.83704,570.3066,913.8806Q570.3001,913.9453,570.2085,914.11426Q570.1799,914.16174,570.1457,914.2064L569.96643,914.4083Q569.90295,914.49805,569.86646,914.5885Q569.85205,914.614,569.83167,914.7134L569.82916,914.7484L569.8392,914.8501L569.8364,914.9187L569.825,914.98474Q569.80945,915.0488,569.7803,915.1023Q569.7201,915.21094,569.6324,915.24194Q569.5893,915.2562,569.5462,915.2429L569.5039,915.22107L569.45935,915.1741L569.4237,915.1057L569.39636,915.0209Q569.3504,914.8247,569.3702,914.60706Q569.3799,914.5029,569.4058,914.4215L569.4351,914.3501L569.47217,914.30005L569.5168,914.27466Q569.5429,914.2726,569.59875,914.25037Q569.61694,914.24,569.6231,914.2261L569.6262,914.20996L569.6228,914.19055Q569.61664,914.16956,569.59814,914.1398Q569.49713,914.0067,569.4681,913.95056Q569.42523,913.8689,569.4004,913.7743Q569.3752,913.67957,569.3677,913.58276Q569.36017,913.4851,569.37006,913.3971L569.3843,913.3141Q569.40295,913.23425,569.43915,913.1808Q569.4635,913.13,569.5519,913.10376Q569.66425,913.07434,569.8968,913.2289 M569.13666,927.4295L569.16254,927.45026Q569.2417,927.51544,569.3228,927.62274Q569.41644,927.7547,569.45557,927.8304Q569.5185,927.93964,569.53973,928.0042Q569.5607,928.06854,569.5406,928.11456Q569.5308,928.15106,569.4366,928.23517Q569.41223,928.25226,569.3789,928.262Q569.29,928.2796,569.26526,928.27484Q569.0515,928.2712,568.8094,928.12286Q568.7637,928.08844,568.73846,928.0429Q568.726,928.02094,568.717,927.9931Q568.7105,927.983,568.699,927.89984Q568.6884,927.7673,568.69666,927.6818L568.7079,927.5964Q568.7236,927.5175,568.7527,927.4631Q568.88153,927.24677,569.13666,927.4295 M565.5231,924.70703L565.552,924.73047Q565.67163,924.83057,565.7671,924.9928Q565.7903,925.03284,565.8104,925.0757L565.82947,925.1189Q565.8701,925.2179,565.8962,925.31836Q565.9223,925.4193,565.9341,925.5132L565.9426,925.6034Q565.9472,925.6898,565.9383,925.75476Q565.92957,925.8197,565.907,925.85364L565.8813,925.8773L565.849,925.8804L565.8099,925.8607Q565.80426,925.86145,565.72766,925.77905Q565.6948,925.7405,565.657,925.6929Q565.5801,925.5945,565.4963,925.4695Q565.4448,925.39526,565.2756,925.1157Q565.19147,924.97253,565.1673,924.88525Q565.1425,924.79724,565.1676,924.7368Q565.2014,924.6632,565.2407,924.6405Q565.3553,924.5807,565.5231,924.70703 M569.9971,928.58344L570.03394,928.6132Q570.04987,928.62274,570.15955,928.736Q570.25055,928.8343,570.3637,928.9787Q570.47723,929.1236,570.6164,929.31744L570.767,929.535L570.88684,929.7237L570.97675,929.884L571.0364,930.01434L571.0663,930.11566L571.06635,930.1856L571.03674,930.2244L570.978,930.23114L570.8907,930.20624L570.77423,930.1485L570.6297,930.05756Q570.47723,929.9549,570.2244,929.7474Q570.0625,929.6141,569.94495,929.4997L569.8381,929.3891L569.75195,929.2858L569.68585,929.1873L569.63934,929.0944L569.61115,929.0036L569.60114,928.9152Q569.60004,928.82697,569.63184,928.7386Q569.6989,928.57745,569.7314,928.5577Q569.74023,928.53937,569.8031,928.5147Q569.8292,928.50836,569.8593,928.514Q569.9192,928.5247,569.9971,928.58344 M564.72076,924.5769L564.7499,924.60156Q564.7789,924.6293,564.80786,924.667Q564.8229,924.6808,564.8912,924.79663Q564.973,924.94617,565.0231,925.1216Q565.1307,925.52405,565.0266,925.59546Q564.9903,925.6199,564.9253,925.6124L564.85254,925.5968Q564.7727,925.5737,564.6601,925.5198Q564.4029,925.4042,564.12524,925.1797Q563.8752,924.97156,563.74036,924.7716Q563.6973,924.70703,563.6724,924.6494L563.6531,924.5941Q563.6385,924.54065,563.6464,924.4989L563.6708,924.46045Q563.8194,924.3574,564.1993,924.39844Q564.31537,924.41125,564.42554,924.44116L564.5304,924.4739L564.6241,924.5156L564.72076,924.5769 M557.5898,919.6199L557.6506,919.6664Q559.5435,921.13306,560.2756,921.8534Q560.50433,922.06494,560.9782,922.65674Q561.5353,923.38513,561.5556,923.4314Q561.6912,923.62695,561.7525,923.7462Q561.81354,923.86426,561.8013,923.9093L561.7708,923.9369Q561.72205,923.9468,561.60205,923.89L561.46423,923.8181Q560.76514,923.3873,559.3683,922.58057Q559.0944,922.4159,559.0149,922.3501Q558.8677,922.2384,558.7827,922.1133Q558.7671,922.09607,558.6962,921.969Q558.5458,921.6583,558.4918,921.572Q558.4094,921.431,558.3256,921.3168Q558.303,921.28125,558.20984,921.17395Q558.20966,921.1677,558.0746,921.0499L557.99243,920.9595Q557.9052,920.85583,557.80566,920.7146Q557.7558,920.6553,557.5061,920.2516Q557.40814,920.0868,557.32367,919.92676Q557.04535,919.3628,557.09326,919.33716Q557.0943,919.2401,557.5898,919.6199 M577.0516,934.4036L577.22833,934.53864Q577.9952,935.13947,578.1714,935.3289Q578.3444,935.5124,578.3271,935.5157Q578.35254,935.5367,578.30255,935.6065Q578.12134,935.764,577.6851,935.74713Q577.3594,935.716,577.31256,935.6857L577.2102,935.64484Q577.07074,935.5518,577.00476,935.52765Q576.8405,935.47577,576.76654,935.48627Q576.71545,935.4521,576.33136,935.65375Q573.9266,933.3986,573.6904,933.1435Q573.1569,932.60675,573.1162,932.54364Q573.02094,932.4307,573.0743,932.4295Q573.19403,932.36676,573.7105,932.5024Q574.2661,932.6497,574.76953,932.86945Q575.4603,933.21735,577.0516,934.4036 M571.1212,931.8272L571.1447,931.8471Q571.4497,932.1502,571.84564,932.69135L571.9474,932.83575Q572.0398,932.97186,572.0931,933.0723Q572.1468,933.17365,572.1622,933.24176Q572.2069,933.44305,571.9213,933.3984Q571.7596,933.36273,571.4856,933.1235Q571.3546,933.01117,571.21606,932.87213Q571.07776,932.73346,570.9459,932.585L570.81934,932.4371Q570.6959,932.2885,570.5993,932.15204L570.5132,932.0223L570.4473,931.90607L570.4051,931.8066L570.3901,931.7282Q570.3898,931.6767,570.41486,931.64496Q570.43976,931.6131,570.4865,931.6016L570.5382,931.59515Q570.65295,931.59186,570.83136,931.6689Q570.9196,931.70685,571.0195,931.76447L571.1212,931.8272 M563.70294,926.214L563.7605,926.25946Q564.11975,926.5485,564.3959,926.9577Q564.5394,927.21063,564.43915,927.29193Q564.3651,927.3183,564.3334,927.3005Q564.2672,927.28375,563.99005,927.1839Q563.8821,927.1431,563.78326,927.10016Q563.5851,927.0131,563.4225,926.91705Q563.24255,926.8056,563.1681,926.742Q563.0577,926.6585,562.9337,926.51166Q562.8506,926.4089,562.736,926.2134Q562.6384,926.03516,562.7311,925.9623Q562.8695,925.8308,563.13245,925.9055Q563.3961,925.9801,563.70294,926.214 M565.5335,928.5621L565.5616,928.5861Q565.6408,928.6596,565.67596,928.77924Q565.711,928.91034,565.7059,929.0424Q565.6923,929.21063,565.54034,929.07745Q565.5278,929.0667,565.50354,929.04266L565.44434,928.97626L565.3928,928.90643L565.3491,928.8354L565.3143,928.7647L565.2884,928.6984L565.2717,928.6358L565.2652,928.5811L565.2688,928.53595L565.28314,928.5019L565.309,928.4821L565.3462,928.47784Q565.45294,928.50104,565.5335,928.5621 M569.1791,931.2841L569.1951,931.2985Q569.27625,931.3754,569.4154,931.6435Q569.4902,931.78827,569.5407,931.90607Q569.5611,931.95514,569.56506,931.9827L569.56415,932.0053L569.55457,932.0186Q569.5402,932.0267,569.50684,932.019Q569.5135,932.0264,569.33954,931.9598Q569.1933,931.9034,569.121,931.83356Q569.0609,931.7775,569.03394,931.7065Q569.0204,931.6707,569.0145,931.63055L569.01074,931.5892Q569.009,931.5463,569.0149,931.4996Q569.03687,931.3477,569.08484,931.28925Q569.1073,931.26227,569.13446,931.2642L569.1485,931.267Q569.163,931.2719,569.1791,931.2841 M571.5059,934.21967L571.5695,934.2708Q571.79724,934.45795,571.99927,934.7515Q572.1652,934.9804,572.389,935.352Q572.4925,935.52936,572.51697,935.62213Q572.5476,935.841,572.32104,935.86285Q572.2138,935.87384,572.0728,935.8118Q571.974,935.76105,571.8509,935.66315L571.6946,935.53656Q571.5245,935.3935,571.32446,935.2104Q570.9124,934.8326,570.5282,934.43634Q570.3426,934.2453,570.20056,934.08514L570.0758,933.9394Q569.96484,933.8045,569.93414,933.737L569.9,933.6442Q569.8114,933.3061,570.26245,933.48004Q570.4707,933.5607,570.8493,933.7944Q571.2814,934.0485,571.5059,934.21967 M563.5899,928.165L563.69183,928.2453Q564.0531,928.54584,564.1945,928.69305Q564.38763,928.8829,564.5411,929.06744Q564.61707,929.15924,564.6785,929.2458Q564.7858,929.3913,564.8348,929.4919L564.8691,929.5816Q564.88916,929.66,564.85175,929.69403Q564.8144,929.7276,564.7204,929.7161L564.6124,929.69293Q564.4905,929.659,564.3131,929.5794Q563.91254,929.38885,563.4806,929.1402Q563.1993,928.9766,563.0421,928.84686Q562.77545,928.6401,562.53357,928.20184Q562.47034,928.0821,562.4427,927.99005Q562.4151,927.8985,562.4231,927.83453L562.44,927.77716Q562.531,927.6291,562.8909,927.7364Q563.17456,927.8438,563.5899,928.165 M569.0726,934.83856L569.1187,934.8763Q569.26404,934.99994,569.36975,935.1462Q569.40265,935.1927,569.4252,935.23566L569.4441,935.2773L569.45593,935.31586L569.46045,935.3505Q569.4549,935.4472,569.34454,935.4223L569.30817,935.4124Q569.2698,935.3997,569.2265,935.3768Q569.18353,935.35406,569.13794,935.3223Q569.07947,935.2795,569.07367,935.2741Q568.959,935.1823,568.86176,935.04144Q568.7854,934.91364,568.7845,934.8094Q568.78357,934.7624,568.8041,934.738L568.8169,934.7282Q568.8315,934.72125,568.85175,934.7225Q568.9379,934.7326,569.0726,934.83856 M565.6957,932.17645L565.696,932.1767L565.7495,932.21967L565.7978,932.26263Q565.8438,932.3046,565.88007,932.34564Q565.95245,932.4288,565.9883,932.5081Q566.0238,932.58734,566.02454,932.66547Q566.02545,932.7441,565.991,932.7685Q565.92334,932.8188,565.7017,932.6458Q565.4803,932.4722,565.4106,932.31476Q565.375,932.23553,565.3744,932.15717Q565.37317,932.0789,565.40753,932.0546Q565.4749,932.0041,565.6957,932.17645 M562.9294,929.77716L562.954,929.7968Q563.0149,929.8438,563.1381,929.95795Q563.87225,930.68256,564.3643,931.13763Q564.5562,931.3204,564.67413,931.46Q564.8498,931.66693,564.8786,931.8061Q564.91327,931.9711,564.87286,932.1574Q564.81177,932.3599,564.3422,932.16705Q564.16174,932.1114,563.1741,931.5972Q562.72473,931.3649,562.53424,931.217Q562.3114,931.0435,562.27106,930.8201Q562.234,930.6668,562.2017,930.315L562.19403,930.12177Q562.19434,929.9422,562.2246,929.82Q562.3486,929.32965,562.9294,929.77716 M571.9338,936.769L571.98376,936.80927Q572.21906,936.99725,572.5102,937.45087Q572.6979,937.7227,572.7452,937.9417Q572.79236,938.189,572.7826,938.54034Q572.7702,938.91766,572.7388,939.028Q572.7201,939.1264,572.68317,939.1574Q572.66455,939.17487,572.52545,939.06915Q572.20264,938.81537,571.3242,937.8941Q570.5979,937.1236,570.228,936.7037Q570.04877,936.49677,570.0605,936.50507Q570.0386,936.4777,570.0275,936.4268Q569.9733,936.21844,569.92114,935.8265Q569.901,935.6768,570.02246,935.6971Q570.18756,935.72577,570.98975,936.18304Q571.6806,936.5723,571.9338,936.769 M569.13794,936.4654L569.21844,936.53143Q569.2516,936.55426,569.51166,936.7978Q569.7322,937.0098,569.9779,937.2714Q570.2238,937.53375,570.45416,937.8067Q570.586,937.96515,570.66425,938.07697Q570.7426,938.1888,570.7706,938.25433L570.78705,938.30914L570.7802,938.34064L570.7505,938.3498L570.699,938.33746L570.62683,938.3029L570.5345,938.2464L570.4234,938.1694Q570.27026,938.0546,570.21027,938.00336Q570.107,937.9216,569.87537,937.7153L569.5208,937.39154L569.3552,937.2338L569.21484,937.0932L569.0983,936.9672L569.0049,936.85565L568.9339,936.75665L568.88416,936.669L568.8555,936.5914L568.8462,936.5229Q568.8471,936.4582,568.88416,936.40717L568.9297,936.35724Q568.94635,936.34845,568.9549,936.35236Q568.98975,936.352,569.13794,936.4654 M565.42993,933.55756L565.4975,933.61273Q565.7686,933.8443,565.8826,934.0739Q565.93536,934.1829,565.93536,934.28595Q565.9394,934.3836,565.8554,934.3757Q565.81177,934.37054,565.7371,934.33636L565.65344,934.2946Q565.5615,934.24457,565.4296,934.1629Q564.92993,933.8516,564.5952,933.5905L564.435,933.4578L564.3098,933.3404L564.2194,933.2399L564.16437,933.1574L564.1451,933.09454L564.1611,933.05145L564.21326,933.0308L564.3014,933.0329L564.426,933.0595L564.5873,933.1125L564.78564,933.19244Q565.069,933.3177,565.1636,933.3765Q565.30426,933.45856,565.42993,933.55756 M572.732,940.7502L572.8221,941.67084Q572.87427,942.1629,572.8518,942.54Q572.83496,942.64594,572.8222,942.6314Q572.8116,942.638,572.73816,942.5805L572.5949,942.45526Q572.41876,942.29254,572.1593,942.02924Q571.6186,941.47943,571.0204,940.82367Q570.34534,940.0717,570.2931,939.9965Q570.1432,939.82623,569.96136,939.5533Q569.90283,939.4777,569.8291,939.40326Q569.7331,939.3027,569.55835,939.17084Q569.47577,939.112,569.42957,939.08405Q569.29694,939.0096,569.2121,938.95294Q569.1635,938.9223,569.0628,938.84686Q568.9698,938.7813,568.8046,938.61285Q568.53375,938.3167,568.49603,938.01434Q568.4672,937.46466,568.86096,937.6978Q568.9221,937.7376,568.99603,937.8046Q569.0323,937.83856,569.0705,937.87775Q569.23346,938.05853,569.27673,938.0943Q569.3004,938.1215,569.58875,938.3792Q570.19684,938.9057,570.6303,939.2448Q571.56244,939.97394,571.98004,940.2659Q572.00824,940.3027,572.732,940.7502 M562.438,932.5682L562.4465,932.575Q562.9305,933.1182,564.39374,934.3554Q564.75934,934.6539,565.1134,934.9018Q565.2782,935.0168,565.39734,935.08563Q565.65576,935.2142,565.75635,935.28033Q565.89294,935.3676,565.98285,935.4499Q566.02606,935.47797,566.15894,935.64594Q566.2073,935.715,566.2415,935.7874Q566.34436,936.0069,566.32153,936.2669Q566.314,936.41156,566.26855,936.4483Q566.1909,936.467,566.1489,936.4333Q566.14014,936.441,565.9087,936.2735Q565.47345,935.9307,565.392,935.8776Q565.2546,935.77606,565.0406,935.6518Q564.9617,935.5983,564.82947,935.58026Q564.72375,935.5439,564.5071,935.44745Q563.9075,935.17316,563.73425,935.08453Q562.7895,934.6281,562.3416,934.34174Q562.21765,934.23444,562.214,934.07965Q562.19055,933.9477,562.23096,933.05145Q562.2479,932.7415,562.2859,932.6225Q562.3057,932.56256,562.3328,932.54364Q562.3406,932.512,562.438,932.5682 M565.3894,936.7437L565.4406,936.7862Q565.48926,936.82904,565.5311,936.8753Q565.5544,936.8942,565.6459,937.02423Q565.74677,937.1817,565.85706,937.43195Q566.13055,938.08905,566.03015,938.1346L565.99866,938.1347Q565.95984,938.1286,565.8975,938.0971Q565.77057,938.0341,565.5726,937.8936Q565.3747,937.75323,565.13776,937.56354Q564.9547,937.4173,564.7646,937.25543Q564.1675,936.74677,563.77527,936.32855Q563.65466,936.19745,563.58594,936.10187L563.53394,936.0185L563.5155,935.9588Q563.5146,935.92035,563.5349,935.89984Q563.59326,935.8123,564.18005,936.08514Q565.17975,936.5588,565.3894,936.7437 M569.4189,939.93243L569.4195,939.9328Q569.54254,940.039,570.0072,940.5345Q570.5442,941.10175,570.8357,941.4401Q571.1756,941.8371,571.33636,942.0739Q571.3869,942.1485,571.40826,942.19366L571.42163,942.23016L571.4116,942.27423L571.36334,942.285Q571.29565,942.2791,571.1683,942.21783Q570.90533,942.0899,570.5076,941.81866Q569.6203,941.20197,569.12024,940.71454Q568.9373,940.52704,568.9246,940.5018Q568.87445,940.439,568.84814,940.38934Q568.786,940.2836,568.8525,940.1348Q568.8866,940.0677,568.9444,940.01337Q568.9662,939.9731,569.1447,939.8952Q569.2971,939.8455,569.4189,939.93243 M566.299,939.2878L566.3082,939.295Q566.3858,939.3228,566.2951,939.7851Q566.2558,939.93243,566.2043,939.97565Q566.19934,940.00433,566.092,939.97845Q566.0825,939.9869,565.8937,939.8536Q565.4332,939.4891,565.32904,939.429Q564.9003,939.13776,564.31116,938.79486Q563.7242,938.45245,563.1245,938.1425Q562.83026,937.9914,562.55994,937.8631Q562.09174,937.6547,561.7953,937.5009Q561.6776,937.38995,561.7426,936.46747Q561.771,936.1811,561.85376,935.9361Q561.9173,935.7928,561.9961,935.8487Q562.0871,935.8968,562.21765,936.04315Q562.3476,936.1828,562.8368,936.7856Q563.04254,937.0253,563.287,937.2702Q563.58984,937.5844,564.20154,938.0893Q564.83966,938.5877,565.15094,938.7591Q565.457,938.93097,565.50476,938.9451Q566.01056,939.1281,566.0668,939.15924Q566.22595,939.2304,566.299,939.2878 M568.70544,941.22186L568.7279,941.2421Q568.7552,941.26166,568.8914,941.4296L569.31134,941.97577Q569.3472,942.02924,569.6226,942.3293Q570.0993,942.82855,570.7008,943.3116Q571.3835,943.846,571.7291,944.0484Q572.0665,944.2496,572.12067,944.27094Q572.1301,944.28656,572.5744,944.467Q572.61456,944.4827,572.7831,944.5689Q573.0561,944.715,573.1305,944.7996Q573.3299,945.28156,573.488,946.4111Q573.5413,946.9102,573.52075,946.9002Q573.52905,947.023,573.383,946.8851Q573.2292,946.7442,573.1014,946.5961Q572.4197,945.77496,571.9197,945.23883Q571.16516,944.4266,570.9963,944.2579Q570.2096,943.45087,570.07135,943.3226Q569.77655,943.0329,569.52185,942.7968Q569.05133,942.3654,569.02936,942.33966Q568.90955,942.2236,568.8363,942.139Q568.7627,942.05365,568.7232,941.9819Q568.6911,941.9506,568.6508,941.75385Q568.6099,941.35016,568.6222,941.2508Q568.63116,941.1617,568.70544,941.22186 M569.6406,943.6773L569.6827,943.71344Q569.889,943.9029,570.05566,944.07245Q570.3538,944.3708,570.69324,944.7288Q571.1629,945.2437,571.43884,945.6163Q571.6903,945.9555,571.5823,945.9328Q571.5043,945.9283,570.9789,945.4764Q570.4672,945.0369,569.77216,944.3952Q569.47906,944.1241,569.2977,943.946Q569.10736,943.7548,569.11676,943.7575Q569.0582,943.6778,569.10944,943.60004Q569.10986,943.5733,569.2379,943.54596Q569.42535,943.5297,569.6406,943.6773 M565.055,940.0119L565.1052,940.05304Q565.3199,940.22626,565.7748,940.6586Q565.835,940.74164,565.8418,940.9405L565.8246,940.97906L565.77313,940.9875L565.6901,940.96893Q565.59125,940.93536,565.44006,940.8536Q565.2887,940.77094,565.0952,940.64557L564.89417,940.51117Q564.6839,940.3669,564.447,940.1893L564.20654,940.0052L563.95667,939.8067L563.8317,939.7004L563.7257,939.6005L563.638,939.508Q563.559,939.4185,563.5185,939.3509Q563.4781,939.28217,563.4791,939.242L563.4912,939.21063Q563.51404,939.18646,563.58246,939.2015Q563.65125,939.2165,563.7684,939.27716Q564.25183,939.5158,564.6017,939.69794Q564.69336,939.7487,564.7915,939.81464Q564.96686,939.93744,565.055,940.0119 M559.2038,936.2631L559.2163,936.2751Q559.2638,936.33636,559.2917,936.40106Q559.3434,936.5101,559.4154,936.7027L559.4588,936.825L559.49384,936.94354L559.51996,937.05707L559.53766,937.16327L559.5468,937.26056L559.54785,937.3465L559.5402,937.42084L559.5243,937.4804L559.5002,937.5245L559.468,937.5512L559.4277,937.5594Q559.37115,937.54926,559.34814,937.52496L559.306,937.4819L559.2659,937.4233L559.2282,937.352L559.1926,937.2692Q559.1242,937.08905,559.09375,936.8743L559.0827,936.77057L559.07794,936.66974L559.08057,936.57245Q559.0929,936.45966,559.09814,936.43866Q559.11896,936.3127,559.1474,936.27155Q559.1725,936.2454,559.1793,936.25165Q559.19073,936.2526,559.2038,936.2631 M576.2186,950.0787L576.2338,950.09344Q576.24176,950.0966,576.2753,950.1579Q576.2884,950.18536,576.3002,950.21954Q576.3364,950.3227,576.36414,950.4942L576.3817,950.62604L576.3906,950.74835L576.39154,950.86163L576.38446,950.96344L576.37054,951.0527L576.3497,951.12823L576.3227,951.1889L576.2895,951.2336L576.2509,951.26056L576.2075,951.2685L576.1596,951.2568L576.1075,951.2238L576.0453,951.1652L575.99146,951.0986L575.9464,951.02374L575.9101,950.94415L575.8829,950.86017L575.86456,950.7723L575.85583,950.6822L575.8569,950.5911L575.86774,950.5014L575.8882,950.41254L575.9194,950.3265L575.9607,950.2443Q576.0245,950.14984,576.03546,950.14166Q576.1165,950.0577,576.1445,950.0606Q576.1845,950.0516,576.2186,950.0787 M566.12665,942.19965L566.1465,942.217Q566.2154,942.27155,566.2633,942.4504Q566.31683,942.62836,566.30756,942.9124Q566.3209,943.35956,566.0798,943.2652Q566.0737,943.2789,565.73737,943.0859Q564.6099,942.36346,564.1559,942.0943Q563.99493,941.9893,563.3389,941.64166Q563.2059,941.5629,562.5985,941.3033Q562.3578,941.2066,562.1136,941.1254Q561.45825,940.9268,561.31757,940.8626Q561.153,940.79083,561.05054,940.6949Q560.70074,940.33344,560.05164,939.2867Q559.72504,938.707,559.7625,938.4815Q559.76685,938.3591,559.84875,938.42804Q559.89264,938.466,559.92865,938.5098Q560.1019,938.7247,560.1773,938.8072Q560.2861,938.925,560.3254,938.9583Q560.4915,939.11163,560.6204,939.12665Q560.70654,939.1359,560.7873,939.08856L561.09064,938.80963Q561.17017,938.74396,561.1871,938.7525Q561.1857,938.7432,561.2951,938.8896Q561.6802,939.43646,561.81995,939.6088Q562.032,939.8742,562.2758,940.12836Q562.95526,940.81244,563.4943,941.18146Q564.1732,941.66693,564.7914,941.9086Q565.2846,942.07465,565.35956,942.0639Q565.8456,942.0898,565.90454,942.1087Q566.0484,942.1357,566.12665,942.19965 M564.7,943.16644L564.73413,943.1965Q564.7541,943.21063,564.82025,943.29364Q564.8694,943.3626,564.8951,943.4399Q564.9209,943.51715,564.9221,943.60016L564.89557,943.6773L564.8183,943.7159L564.6979,943.7194L564.5413,943.6921Q564.1787,943.5994,563.70154,943.3475Q563.47076,943.2254,563.2543,943.08636L563.0491,942.9462L562.8652,942.80536L562.81824,942.7659Q562.5287,942.5085,562.49567,942.3659Q562.4266,942.14606,562.6633,942.18854Q562.8234,942.21674,563.14746,942.3687L564.552,943.06976Q564.6347,943.1131,564.7,943.16644 M570.3267,947.75824L570.3573,947.78485Q570.49036,947.9162,570.627,948.0732Q571.59515,949.1661,571.61786,949.19403L571.8457,949.4565Q572.2663,949.9462,572.46356,950.22784Q572.75793,950.63385,572.65826,950.7714Q572.56024,950.8206,572.1464,950.4438Q571.9711,950.284,571.7667,950.07513Q571.56274,949.8653,571.3499,949.62775L571.1395,949.388Q570.7101,948.8902,570.39954,948.4433Q570.08264,947.9693,570.06445,947.8216Q570.0636,947.75446,570.227,947.72186Q570.2744,947.71014,570.3267,947.75824 M559.1719,938.88007L559.18677,938.89667Q559.27264,939.0046,559.69946,939.8431Q560.10657,940.6711,560.15076,940.8476Q559.9094,941.16364,559.1052,941.66815L558.80896,940.8459Q558.7753,940.7458,558.75146,940.6573Q558.68286,940.4029,558.6878,940.1689Q558.7018,939.71405,558.85223,939.32965Q558.9483,939.06793,559.04755,938.9379Q559.09576,938.8765,559.1356,938.86945L559.1719,938.88007 M576.28906,952.94684L576.30634,952.9654Q576.47906,953.23676,576.6852,953.91315Q576.75726,954.1607,576.8027,954.38837L576.841,954.6088Q576.8733,954.8238,576.8779,955.0102Q576.8886,955.38434,576.79315,955.61945Q576.74536,955.736,576.6718,955.8107Q576.5489,955.9334,576.4261,956.0561Q575.7277,954.5015,575.6767,954.3543Q575.5637,954.0883,575.4181,953.67694Q575.3456,953.46246,575.3438,953.39606Q575.38293,953.191,575.73517,953.0192Q576.08563,952.8448,576.28906,952.94684 M574.56226,953.2287L574.57495,953.2421Q574.9202,953.7519,575.36633,954.6739Q575.5651,955.09515,575.69055,955.4273Q575.8209,955.7985,575.8115,955.8151Q575.834,955.94867,575.78625,955.957Q575.7155,956.00604,575.5576,955.98773Q575.3499,955.95245,575.1535,955.8697Q575.0429,955.8201,574.92126,955.69147Q574.8288,955.5932,574.70056,955.41656Q574.5675,955.23663,574.0532,954.47675L573.6442,953.8913Q573.33856,953.4639,573.2918,953.41034Q573.2795,953.3848,573.16595,953.27875Q573.114,953.21967,573.1087,953.1734Q573.0998,953.0783,573.25195,953.0402Q573.4707,953.00836,573.55396,953.02277Q573.67957,953.03046,573.83386,953.05804Q574.576,953.21,574.56226,953.2287 M560.83075,941.93146L560.8342,941.93414Q561.3225,942.6003,561.7974,943.33307Q562.1264,943.8599,562.09204,943.9952L562.0707,944.02997Q562.0395,944.05426,561.9686,944.0363Q561.77716,943.9621,561.4671,943.904Q561.1858,943.8492,560.7364,943.7935Q560.5246,943.7419,560.44794,943.6622Q560.3654,943.601,560.1877,943.3608Q560.03,943.1589,559.8244,942.81757Q559.6891,942.5754,559.6777,942.5214Q559.66266,942.47833,559.6619,942.4516L559.67804,942.3597Q559.82526,942.066,560.2703,941.9184Q560.4049,941.87494,560.52997,941.8648L560.64746,941.8652L560.7495,941.8864L560.83075,941.93146 M564.0289,945.8691L564.05774,945.894Q564.1359,945.95734,564.1727,946.0578Q564.1986,946.1597,564.1302,946.2087L564.03925,946.238Q563.92554,946.2513,563.74805,946.2121Q563.3802,946.1275,562.9313,945.91144Q562.7147,945.80707,562.5201,945.6888L562.33844,945.5705L562.15436,945.42804Q562.0437,945.3321,561.98505,945.24384Q561.9524,945.19,561.95044,945.1794Q561.91846,945.1016,561.9213,945.05255Q561.9247,945.00433,561.9673,944.9853Q562.0101,944.9677,562.0964,944.97955L562.1949,944.9997Q562.53125,945.08954,563.30237,945.45526Q563.83496,945.70734,564.0289,945.8691 M571.1097,951.74347L571.1583,951.7862Q571.2619,951.88043,571.4244,952.0578Q571.73145,952.3979,571.9349,952.64154Q572.74506,953.5992,573.0594,954.0362Q573.3805,954.4797,573.4004,954.6722Q573.41797,954.78705,573.38043,954.77997Q573.329,954.7847,573.197,954.67377Q572.88324,954.40314,572.3718,953.8028Q571.86206,953.2049,571.4363,952.6149Q571.2323,952.3306,571.1017,952.1109L570.9982,951.91876Q570.9229,951.7553,570.9505,951.6867Q570.97424,951.6318,571.1097,951.74347 M566.2269,948.2963L566.25336,948.3215Q566.3059,948.37994,566.351,948.487Q566.37366,948.54,566.3926,948.6032L566.41034,948.66864Q566.4449,948.8051,566.45807,948.9714L566.46484,949.07916Q566.46936,949.1801,566.4659,949.25604Q566.46277,949.3317,566.45135,949.38275L566.4372,949.4272Q566.4213,949.465,566.397,949.4782Q566.3725,949.4913,566.3393,949.48016L566.3037,949.4632Q566.25824,949.4323,566.23474,949.40814Q566.13586,949.30865,566.08453,949.22626Q566.03674,949.15375,566.00464,949.0817L565.97626,949.0086L565.9554,948.9357L565.942,948.86115L565.93665,948.78534Q565.93774,948.545,566.0545,948.3304Q566.1331,948.2161,566.2269,948.2963 M568.79083,950.3892L568.8149,950.41254Q568.9162,950.52167,569.02734,950.84894Q569.0543,950.93,569.0808,951.02435Q569.0909,951.0507,569.1664,951.3626Q569.2138,951.5549,569.2026,951.6159L569.1922,951.6418Q569.1781,951.6618,569.14655,951.663Q569.15424,951.6722,568.98663,951.6375Q568.8251,951.5987,568.7517,951.5147Q568.66345,951.4211,568.62823,951.2414Q568.59247,951.06256,568.5982,950.7629Q568.60077,950.66876,568.61,950.59796L568.6204,950.53156Q568.6328,950.47186,568.65015,950.4329Q568.7037,950.3173,568.79083,950.3892 M576.264,957.55145L576.29626,957.5817Q576.3621,957.64923,576.42566,957.7603Q576.5016,957.9056,576.5129,957.94464Q576.5758,958.1187,576.5821,958.16046Q576.59357,958.19867,576.6278,958.392Q576.7056,958.8652,576.69324,959.13556Q576.689,959.22064,576.6748,959.26825L576.6587,959.3038L576.63727,959.3173L576.6086,959.30365Q576.59216,959.29645,576.5195,959.16425L576.4573,959.03656Q576.39343,958.8953,576.3292,958.72455L576.2678,958.5533Q576.2064,958.3763,576.1574,958.2066Q576.10846,958.0368,576.0789,957.898L576.0561,957.7725L576.04694,957.6751L576.0531,957.6109Q576.06226,957.5784,576.07526,957.5557Q576.1441,957.45026,576.264,957.55145 M559.23975,943.3492L559.2435,943.3527Q559.36206,943.4538,559.45636,943.70294Q559.4887,943.7941,559.4997,943.8768L559.5011,943.95526L559.48663,944.03973L559.45905,944.1285L559.4204,944.217L559.3731,944.3034Q559.3217,944.388,559.26227,944.45514Q559.2029,944.5224,559.14526,944.55975L559.09033,944.5871L559.04095,944.59283L558.9994,944.57513Q558.9275,944.5037,558.92847,944.2221Q558.9288,944.13104,558.9374,944.0269L558.9483,943.9205Q558.9609,943.8111,558.9821,943.695Q559.00146,943.57806,559.0367,943.46576Q559.0759,943.35675,559.0851,943.3537Q559.09216,943.33075,559.1414,943.30804Q559.18225,943.30023,559.23975,943.3492 M572.6445,956.36383L572.6445,956.3649Q572.6835,956.39764,572.747,956.4753Q572.8655,956.62494,572.9371,956.7326Q572.96967,956.77545,573.23975,957.1956L573.27026,957.2463Q573.29553,957.2895,573.29755,957.3045L573.29443,957.3133L573.28033,957.30963L573.2555,957.29486L573.2196,957.2696L573.10596,957.18195Q573.09955,957.17804,573.0569,957.13934Q572.9498,957.03375,572.841,956.8742Q572.6968,956.6628,572.6198,956.465Q572.5884,956.38556,572.5904,956.35675L572.59326,956.34564Q572.5979,956.3377,572.61005,956.34186Q572.6203,956.3438,572.6445,956.36383 M562.6722,947.9715L562.68274,947.9831Q562.7135,948.0296,562.64856,948.07635Q562.5793,948.12177,562.5649,948.11884Q562.53424,948.12494,562.4967,948.12103Q562.4593,948.1164,562.4178,948.10394L562.3757,948.08966Q562.3328,948.07367,562.29004,948.05096L562.2479,948.0275Q562.2063,948.00323,562.16846,947.9753Q562.1038,947.92487,562.08295,947.90045Q562.0681,947.88434,562.05585,947.8697Q562.02783,947.83,562.026,947.82306Q562.0105,947.79254,562.00964,947.7641L562.01935,947.7503L562.0467,947.7453L562.08936,947.748L562.14417,947.75775Q562.2052,947.7708,562.2784,947.79364Q562.3518,947.8167,562.42615,947.8455Q562.5795,947.90497,562.6722,947.9715 M560.174,944.98065L560.1738,944.98175Q560.26605,945.04926,560.6132,945.49054Q560.8921,945.8592,560.9987,946.0466Q561.1848,946.37103,561.17834,946.42694Q561.1664,946.51654,561.0934,946.5478Q561.0206,946.5915,560.9087,946.62177Q560.8614,946.64716,560.537,946.6796Q560.2195,946.6818,560.181,946.6595Q560.0791,946.6386,560.0229,946.59625Q559.9462,946.53156,559.8692,946.4465Q559.8272,946.4108,559.6513,946.16644Q559.43964,945.8499,559.3849,945.60187Q559.341,945.3481,559.6016,945.1132Q559.7672,944.96857,559.9485,944.93304Q560.0361,944.91815,560.1085,944.9433L560.174,944.98065 M575.2201,957.61725L575.28204,957.67303Q575.51807,957.89886,575.74316,958.37897Q576.0252,959.01044,576.1187,959.2729Q576.2439,959.5954,576.3007,959.83234Q576.32776,959.91315,576.2191,959.9389Q576.1656,959.9476,576.09,959.9382L576.0112,959.9233Q575.74274,959.8637,575.50867,959.68085Q575.23944,959.3715,574.82324,958.61615Q574.5977,958.21515,574.3963,957.8078Q574.31744,957.6403,574.28845,957.53546L574.272,957.4428Q574.2678,957.3647,574.3123,957.33417L574.3694,957.31305Q574.4388,957.3027,574.55664,957.3255Q574.976,957.4086,575.2201,957.61725 M569.1201,952.9816L569.13574,952.99457Q569.3691,953.2121,569.6925,953.58295Q569.77606,953.68243,569.8155,953.7459Q569.8194,953.7452,569.8687,953.8592Q570.2982,955.05804,570.70026,956.48444Q570.81647,956.9239,570.6252,956.74615Q570.5603,956.70404,570.3033,956.3732Q570.15,956.17267,569.8054,955.6799Q569.6572,955.47797,569.5114,955.29926Q569.3658,955.12054,569.2523,955.0025Q569.2398,954.9841,569.0682,954.83124Q568.9859,954.75226,568.91907,954.66754Q568.7865,954.4997,568.7137,954.3045Q568.6864,954.2607,568.63696,953.9963Q568.62427,953.9379,568.6165,953.67096Q568.6165,953.6453,568.5981,953.5196Q568.5658,953.3249,568.49304,953.1772Q568.4856,953.10504,568.4957,953.0914Q568.5526,952.9288,568.7835,952.8615Q568.96857,952.83344,569.1201,952.9816 M565.9244,950.27545L565.9761,950.3212Q566.383,950.71796,566.60364,951.4692Q566.6285,951.5706,566.61707,951.6098Q566.5491,951.64935,566.53406,951.7387Q566.5174,951.8034,566.5111,951.89386Q566.50867,952.1506,566.4971,952.1878L566.4808,952.26373Q566.4608,952.3321,566.42615,952.3693Q566.3575,952.44293,566.2282,952.3891Q566.1632,952.36176,566.0827,952.30304Q565.91345,952.1672,565.8977,952.1639Q565.77844,952.0892,565.6154,952.017Q565.4528,951.9451,565.2806,951.88885L564.81555,951.7568Q564.6039,951.67584,564.54016,951.61017Q564.49634,951.5701,564.4809,951.52985L564.4737,951.4216Q564.4888,951.3018,564.56165,951.13654Q564.82355,950.57635,565.216,950.1722Q565.3327,950.05865,565.4202,950.0264L565.4953,950.02277Q565.73914,950.12067,565.9244,950.27545 M559.1405,946.733L559.1451,946.7369Q559.17596,946.7635,559.2266,946.8287L559.24725,946.86005Q559.2674,946.89325,559.28516,946.9318Q559.34033,947.0529,559.36066,947.1867Q559.36694,947.23004,559.36755,947.2703L559.3673,947.3156Q559.3641,947.4003,559.34564,947.4393L559.33575,947.4559Q559.32526,947.47015,559.3122,947.47406Q559.2858,947.4827,559.25385,947.45514Q559.1993,947.40875,559.14954,947.2835Q559.1334,947.24286,559.1199,947.1954L559.1075,947.1468Q559.0956,947.09564,559.08734,947.0402Q559.072,946.9162,559.0689,946.8333L559.06836,946.7967Q559.06903,946.76434,559.0735,946.7442Q559.08575,946.6849,559.1405,946.733 M576.45654,961.40607L576.47504,961.4224Q576.5503,961.4931,576.6022,961.60236Q576.62775,961.65924,576.6393,961.70856Q576.6438,961.733,576.6443,961.76117L576.6434,961.78986Q576.63947,961.8504,576.6189,961.9091Q576.61633,961.9262,576.58044,961.9875Q576.51184,962.07587,576.48975,962.08636Q576.46,962.107,576.4345,962.08575Q576.3857,962.0478,576.28125,961.7338Q576.25385,961.63934,576.2427,961.5568Q576.2375,961.51556,576.2366,961.4808L576.23706,961.4484Q576.2385,961.4178,576.2457,961.3974L576.2541,961.3798Q576.2747,961.3492,576.3067,961.34393Q576.37384,961.33624,576.45654,961.40607 M571.7816,957.3024L571.80884,957.32794Q571.9246,957.45844,572.0316,957.61456L572.7354,958.638Q572.88995,958.85736,573.0399,959.0578Q573.4122,959.5413,573.482,959.61456Q573.62683,959.78534,573.7686,959.9382Q573.9108,960.091,574.05005,960.22565L574.1891,960.3558Q574.3358,960.4882,574.4477,960.57684Q574.62823,960.72125,574.8072,960.8355Q574.95605,960.9294,574.9859,960.94366L575.29346,961.11273Q575.43787,961.2004,575.48096,961.23627Q575.66754,961.3753,575.75037,961.54156L575.86993,961.8217Q575.939,962.01886,575.9227,962.1246Q575.88837,962.3344,575.539,962.1818Q575.36597,962.1059,575.1206,961.9417L574.8588,961.7558Q574.2871,961.3271,573.51044,960.61176Q573.1371,960.2579,572.8721,959.8494Q572.5326,959.35504,572.1201,958.5699Q571.75226,957.84625,571.6656,957.4837Q571.6374,957.3802,571.6698,957.3201Q571.7126,957.2371,571.7816,957.3024 M563.46014,950.2647L563.47546,950.2789Q563.7345,950.5745,563.45416,950.8289Q563.3103,950.94135,563.0723,950.98834Q562.766,951.0274,562.69,951.0085L562.5888,950.9948Q562.4837,950.9742,562.36597,950.93134Q562.12964,950.84515,561.8594,950.6796Q561.4714,950.44745,560.9942,950.0179Q560.26,949.3344,559.8062,948.58734Q559.7488,948.4892,559.7236,948.41534Q559.69324,948.36993,559.7129,948.23224Q559.82,948.02997,559.9235,948.0522Q560.01074,948.07477,560.08734,948.1529Q560.1523,948.21027,560.3677,948.46674L560.4958,948.60114Q560.71454,948.8226,560.9964,949.0727Q561.7789,949.7519,561.9675,949.84393Q562.1639,949.9622,562.3612,950.0124L562.57904,950.05585Q563.089,950.1197,563.20355,950.15326Q563.3801,950.19464,563.46014,950.2647 M559.5051,949.35284L559.52673,949.3746Q559.591,949.4421,559.7793,949.7476Q560.3425,950.66583,560.49854,950.9394Q560.81006,951.46564,560.8682,951.69257Q560.89215,951.77826,560.9014,951.8625Q560.9179,952.0837,560.9098,952.14386Q560.89764,952.3283,560.8337,952.398Q560.69916,952.5307,560.4357,952.2684Q560.30786,952.14056,560.1669,951.9307Q559.9906,951.6525,559.9545,951.5749Q559.7367,951.179,559.5511,950.63214Q559.37787,950.07904,559.358,949.68317Q559.3527,949.5588,559.369,949.47577L559.3913,949.40546Q559.4598,949.29535,559.5051,949.35284 M576.1837,963.60126L576.20026,963.6193Q576.32587,963.8298,576.2857,964.43097Q576.2267,964.8354,576.0165,965.0175Q575.80664,965.1983,575.5345,965.1523Q575.2602,965.1037,575.02106,964.836Q574.77924,964.5483,574.65796,964.1474Q574.60394,963.9836,574.5879,963.8621L574.5818,963.74896Q574.5861,963.6474,574.63214,963.58026Q574.6781,963.5131,574.77,963.4786L574.8742,963.45074Q574.9895,963.43024,575.1552,963.4367Q575.7609,963.4699,576.1837,963.60126"/> </g> <g style="fill:rgb(94,172,172); fill-opacity:1.0; stroke-linejoin: miter"> <path d="M570.2085,971.96893L570.1813,971.9449L570.1525,971.9205Q570.123,971.89594,570.0913,971.8724Q570.01013,971.8129,569.9918,971.8024L569.9572,971.7801Q569.92224,971.7587,569.88654,971.73846Q569.7939,971.6899,569.78546,971.689Q570.385,972.22675,570.3581,972.2044Q570.3918,972.1862,570.3481,972.1209Q570.3046,972.0556,570.2085,971.96893"/> </g> <g style="fill:rgb(94,172,172); fill-opacity:1.0; stroke-linejoin: miter"> <path d="M565.27527,967.50116L565.2564,967.4848L565.24066,967.4742L565.22797,967.46735L565.2182,967.46515Q565.2101,967.4654,565.20825,967.4749L565.2077,967.4859Q565.2091,967.5003,565.2169,967.523Q565.21655,967.5274,565.2543,967.6119Q565.4257,967.76544,565.69586,968.0091L565.6988,968.012Q565.5911,967.86334,565.43054,967.6689Q565.3351,967.5546,565.27527,967.50116"/> </g> <g style="fill:rgb(0,0,0); fill-opacity:1.0; stroke-linejoin: miter"> <path d="M407.59354,865.47473Q402.81793,872.10254,401.90552,880.77496Q401.1765,889.0915,404.84274,895.06494Q408.56796,901.11475,417.2251,905.95105Q428.05252,911.71027,436.59735,912.75604L442.61276,854.5392Q433.53113,851.3358,423.8673,854.4601Q413.3179,857.8251,407.62332,865.4343"/> </g> <g style="fill:rgb(0,0,0); fill-opacity:1.0; stroke-linejoin: miter"> <path d="M447.29617,1296.8577L421.2983,1300.3864Q417.31363,1313.6167,420.45126,1317.8286Q421.38974,1319.1892,423.24045,1320.297Q424.12216,1320.9171,428.68417,1322.7555Q429.3591,1323.0647,429.89072,1323.4463Q430.20053,1323.4009,432.67056,1326.7178Q433.43814,1327.4995,434.41666,1328.1167Q436.60318,1329.5244,440.83078,1330.7968Q451.28824,1333.8475,462.97714,1335.1738Q471.3328,1336.0767,473.76883,1334.1179Q475.68765,1332.8208,475.64822,1328.2256Q475.488,1324.3098,473.37003,1321.308Q472.25003,1319.6764,470.04184,1317.9796Q469.03952,1317.2098,467.78397,1316.3782Q461.46243,1312.3644,460.79904,1311.8267Q458.68338,1310.3389,456.90988,1308.6693Q453.0212,1305.1334,447.32132,1296.8931"/> </g> <g style="fill:rgb(0,0,0); fill-opacity:1.0; stroke-linejoin: miter"> <path d="M515.8393,1297.245Q513.98175,1296.0732,510.5321,1294.3977L498.15106,1288.6725Q495.56305,1287.4526,493.27887,1286.2721Q489.23865,1284.2416,480.5421,1279.0656L454.89722,1281.2495Q454.10715,1291.3762,454.3469,1295.2693Q454.4601,1298.3093,456.03946,1299.2056Q457.33615,1300.0953,461.34958,1300.4102Q463.45688,1300.6799,476.7272,1300.9594Q478.59573,1301.0338,479.6271,1301.226Q480.40665,1301.3641,481.26132,1301.6797Q486.21408,1303.7659,490.12097,1305.0795Q494.14148,1306.4545,497.78937,1307.4445Q505.55737,1309.5421,509.72223,1309.373Q516.41815,1309.1766,519.16095,1303.9247Q521.22614,1300.4929,515.91266,1297.2913"/> </g> <g style="fill:rgb(0,0,0); fill-opacity:1.0; stroke-linejoin: miter"> <path d="M520.121,1074.5835L436.50043,1081.5345Q436.37048,1081.3883,436.0246,1082.2958Q432.06567,1090.4003,432.3186,1096.2689Q432.45648,1099.2568,433.4687,1102.5039L438.46985,1116.81Q439.3365,1119.9323,439.6718,1123.4565Q440.2072,1125.0258,439.8038,1148.8416Q439.64084,1159.9465,438.95645,1168.2422Q438.0303,1179.462,436.1248,1188.0767Q436.04733,1189.9917,427.0647,1222.4575Q425.3084,1229.6489,424.1004,1237.3553Q422.46216,1243.6433,418.12906,1300.3075Q425.15714,1305.8102,434.37527,1306.6876Q444.44412,1307.5396,446.6783,1303.1151Q447.89597,1301.1997,448.22318,1297.8735L450.00433,1267.8723L461.5916,1230.1074Q455.06384,1262.3038,453.83716,1270.6943Q452.19537,1281.1669,453.32965,1282.8469Q466.67032,1286.409,484.5652,1281.1152Q484.21997,1257.9794,486.5583,1248.3427Q487.5951,1243.653,489.36627,1238.9235Q490.06158,1236.5183,497.33734,1220.8112Q498.80957,1217.2117,500.3828,1211.2644Q510.5905,1169.5225,516.6652,1135.1301Q522.8438,1101.569,520.1473,1074.9296"/> </g> <g style="fill:rgb(255,255,255); fill-opacity:1.0; stroke-linejoin: miter"> <path d="M418.6359,983.0417Q422.90015,983.1204,426.68994,986.7054Q427.59454,986.7707,439.4291,1002.0365Q401.15167,995.37213,393.76434,998.3831Q411.19412,982.5347,418.5477,983.04205 M469.58856,902.14435L433.88516,914.20355L433.59177,918.30475Q401.28915,943.35394,376.74634,970.9513Q359.44733,990.7625,357.28165,1001.67413Q353.64005,1014.5194,376.86722,1019.2595Q422.9861,1027.416,453.57257,1023.35425Q453.2437,1027.7183,450.9041,1033.9282Q437.8521,1063.4592,437.40637,1066.7145Q434.2887,1076.0507,431.13196,1093.2461L485.12836,1097.9021Q491.82172,1098.4198,496.56732,1098.0Q507.7657,1097.6923,520.71234,1084.8824L522.9981,1044.3905L517.975,985.3338Q518.06757,934.2954,515.41394,929.6188Q511.13373,917.3561,500.627,910.4459Q493.91122,905.66266,476.5597,907.88104L469.6117,902.1635"/> </g> <g style="fill:rgb(255,184,147); fill-opacity:1.0; stroke-linejoin: miter"> <path d="M433.02747,855.5829Q426.5976,858.49414,421.63123,864.8025Q416.99698,871.0058,417.64517,875.59625Q418.16208,879.26056,421.48468,882.4764Q422.76477,883.744,424.60397,885.11597Q432.34897,890.38257,433.3505,891.3185Q435.77267,893.2335,438.3561,895.9741L435.19968,898.80615Q427.02127,895.75806,423.47968,897.83655Q419.2022,900.4215,420.93713,904.677Q422.30374,907.2712,427.81406,909.3034Q432.25076,910.9759,435.7337,909.85736Q436.02924,910.0361,436.00098,910.95184L435.67322,914.61957L469.82092,927.06885L475.70557,932.9155L471.4594,907.50287Q478.26532,901.8278,479.44763,899.8288Q481.29456,897.29205,479.9052,895.06305Q479.5299,894.4177,479.09613,893.8673Q475.26245,889.4458,474.42078,887.9896Q474.05402,887.7213,468.88406,877.9617Q467.58652,875.7433,466.54953,874.48865Q463.58853,870.8335,458.921,868.9334Q456.56375,864.2902,450.90497,859.23785Q441.85245,851.5702,433.14172,855.53345"/> </g> <g style="fill:rgb(255,184,147); fill-opacity:1.0; stroke-linejoin: miter"> <path d="M450.0227,1015.9254L447.2799,1023.1614Q447.07074,1024.81,447.25183,1026.3092Q447.52258,1028.8164,449.01477,1031.5897Q450.55933,1034.4045,452.3515,1035.6973Q455.04724,1037.3733,455.97986,1035.4387Q456.61798,1033.9382,454.76154,1029.3265Q458.6277,1034.7094,462.7304,1037.1418Q464.46494,1038.0658,465.65866,1037.6796Q466.8411,1037.2367,466.70676,1035.7306Q466.57297,1034.0085,463.41022,1030.2981L459.55658,1025.8783Q454.09174,1019.32983,453.92084,1019.2539Q452.20984,1017.3906,450.02985,1015.93054"/> </g> <g style="fill:rgb(0,0,0); fill-opacity:0.29803923; stroke-linejoin: miter"> <path d="M481.99918,919.7565L478.22498,929.6052L478.22498,929.60596L486.21902,922.7416L482.01254,919.76587L481.99918,919.7565L481.99918,919.7571L481.99918,919.7565 Z M463.73615,926.99365L460.20157,935.9718L471.48767,930.6356L463.74457,926.99756L463.73615,926.99365L463.73615,926.99426L463.73615,926.99365 Z M469.67255,940.99255L439.5536,950.59705L437.47308,954.4761L469.67047,940.9938L469.67255,940.99255L469.67255,940.99316L469.67255,940.99255 Z M498.70694,946.7871L507.04877,955.9039Q513.09125,954.8929,514.7163,954.58905Q516.9925,954.1728,516.9451,954.09564Q516.94244,954.07074,516.7476,954.07074Q516.33405,954.07074,515.05524,954.18304Q513.5026,954.31573,508.7531,954.8138L498.71506,946.79333L498.70694,946.7871L498.70694,946.78784L498.70694,946.7871 Z M475.3426,957.1855L475.32385,968.5297L457.39978,975.07245L447.15414,967.7338L447.15414,967.73444L456.27283,977.29767L478.43753,968.8725L475.3509,957.21674L475.3426,957.1855L475.3426,957.1862L475.3426,957.1855 Z M389.98322,999.11884L377.6387,1003.8051L389.56836,1001.8315L393.92932,998.1967L389.98322,999.11884L389.98322,999.11957L389.98322,999.11884 Z M456.2843,1032.0106L455.89185,1039.9235L462.55383,1038.3113L456.28906,1032.0153L456.2843,1032.0106L456.2843,1032.0114L456.2843,1032.0106 Z M467.44943,1033.087L470.2327,1039.0192L464.55453,1041.1141L473.4869,1041.3203L467.4556,1033.0942L467.44943,1033.087L467.44943,1033.0876L467.44943,1033.087 Z M486.5129,951.39435Q496.64645,979.24347,502.22437,1003.9485Q507.1798,1025.3588,509.128,1051.7876L506.33093,1014.15173L486.51492,951.39435L486.5129,951.39496L486.5129,951.39435 Z M509.1303,1051.8613Q509.19263,1088.441,509.58575,1092.7769Q509.66693,1093.6384,509.74878,1093.6384Q509.91937,1093.6384,510.0937,1089.9065Q510.2987,1084.9047,510.22327,1077.4125Q510.07452,1064.8109,509.1474,1052.0533L509.1327,1051.8613L509.1303,1051.862L509.1303,1051.8613 Z M496.26984,1128.2537Q485.24316,1187.7561,481.10455,1199.5527Q478.45117,1208.2896,475.161,1214.3362Q472.16577,1220.0378,465.81238,1227.9208L483.4129,1216.3945L496.26038,1128.3369L496.27203,1128.2537L496.26984,1128.2543L496.26984,1128.2537 Z"/> </g> <g style="fill:rgb(255,0,17); fill-opacity:0.078431375; stroke-linejoin: miter"> <path d="M439.4303,906.4466L461.42062,923.73444L466.0235,909.3797Q454.69223,910.73175,449.97098,910.1137Q444.57605,909.52264,439.4427,906.45294"/> </g> </g> </svg>